<?xml version="1.0" encoding="utf-8"?>
<!-- Generator: Adobe Illustrator 18.0.0, SVG Export Plug-In . SVG Version: 6.00 Build 0)  -->
<!DOCTYPE svg PUBLIC "-//W3C//DTD SVG 1.1//EN" "http://www.w3.org/Graphics/SVG/1.1/DTD/svg11.dtd">
<svg version="1.1" id="Ebene_1" xmlns="http://www.w3.org/2000/svg" xmlns:xlink="http://www.w3.org/1999/xlink" x="0px" y="0px"
	 width="100px" height="100px" viewBox="0 0 100 100" enable-background="new 0 0 100 100" xml:space="preserve">
<g>
	<rect x="1.6" y="1.6" fill="#80ACB1" width="96.8" height="96.8"/>
	<path fill="#FFFFFF" d="M3.2,3.2h93.6v93.6H3.2V3.2z M0,0v1.6v96.8v1.6h1.6h96.8h1.6V0H0z"/>
	<g>
		<defs>
			<rect id="SVGID_1_" width="100" height="100"/>
		</defs>
		<clipPath id="SVGID_2_">
			<use xlink:href="#SVGID_1_"  overflow="visible"/>
		</clipPath>
		<path clip-path="url(#SVGID_2_)" fill="#FFFFFF" d="M38.8,24.2l0.7-1.1c2.5-4.5,7.2-7.5,12.6-7.9c0.5,0,0.9-0.1,1.4-0.1
			c4.8,0,9.5,2.1,12.5,5.8h0l-2.4,1.7c-2.4-3-6.2-4.7-10.1-4.7c-0.4,0-0.7,0-1.1,0.1c-4.3,0.4-8.1,2.6-10.1,6.3L38.8,24.2z"/>
		<path clip-path="url(#SVGID_2_)" fill="#FFFFFF" d="M49.7,44.5c-4.4-1-8.1-3.7-10.2-7.5l-0.7-1.1l3.3-0.1c1.7,3.1,4.7,5.1,8.3,6
			c1,0.2,2,0.3,3,0.3c2.6,0,5.2-0.8,7.4-2.2l1.2-0.8l0.5,3.1c-2.7,1.8-5.8,2.7-9.1,2.7C52.2,44.9,50.9,44.8,49.7,44.5"/>
	</g>
	<rect x="64.4" y="52.2" fill="#FFFFFF" width="0.5" height="46.2"/>
	<rect x="66.1" y="52.2" fill="#FFFFFF" width="0.5" height="46.2"/>
	<g>
		<defs>
			<rect id="SVGID_3_" width="100" height="100"/>
		</defs>
		<clipPath id="SVGID_4_">
			<use xlink:href="#SVGID_3_"  overflow="visible"/>
		</clipPath>
		<path clip-path="url(#SVGID_4_)" fill="#FFFFFF" d="M44.1,23.3c0-0.7,0.4-1.4,1-1.8c0.4-0.3,0.8-0.4,1.3-0.4
			c0.4,0,0.9,0.1,1.3,0.4c0.6,0.4,1,1.1,1,1.8c0,0.2,0,0.3-0.1,0.5l-1-0.2c0-0.1,0-0.2,0-0.3c0-0.4-0.2-0.7-0.5-0.9
			c-0.2-0.1-0.4-0.2-0.7-0.2c-0.2,0-0.5,0.1-0.7,0.2c-0.3,0.2-0.5,0.6-0.5,0.9c0,0.1,0,0.2,0,0.3l-1,0.3
			C44.1,23.7,44.1,23.5,44.1,23.3"/>
	</g>
	<rect x="62.4" y="32.4" fill="#FFFFFF" width="1.6" height="7"/>
	<g>
		<defs>
			<rect id="SVGID_5_" width="100" height="100"/>
		</defs>
		<clipPath id="SVGID_6_">
			<use xlink:href="#SVGID_5_"  overflow="visible"/>
		</clipPath>
		<path clip-path="url(#SVGID_6_)" fill="#FFFFFF" d="M58.3,23.9L58.3,23.9c-0.1-0.3-0.1-0.4-0.1-0.6c0-0.7,0.4-1.5,1.1-1.8
			c0.4-0.2,0.7-0.3,1.1-0.3c0.6,0,1.1,0.2,1.6,0.6c0.5,0.4,0.7,1,0.7,1.5c0,0.3-0.1,0.7-0.3,1l-1-0.5c0.1-0.2,0.1-0.3,0.1-0.5
			c0-0.3-0.1-0.6-0.4-0.8c-0.2-0.2-0.5-0.3-0.8-0.3c-0.2,0-0.4,0-0.6,0.2c-0.4,0.2-0.6,0.6-0.6,1c0,0.1,0,0.1,0,0.2l0.2,0.3
			l-0.9,0.6L58.3,23.9z"/>
	</g>
	<rect x="59" y="23.6" fill="#FFFFFF" width="4.1" height="1"/>
	<polygon fill="#FFFFFF" points="27.6,27.4 29.3,23.5 30.8,24.1 29,28 	"/>
	<g>
		<defs>
			<rect id="SVGID_7_" width="100" height="100"/>
		</defs>
		<clipPath id="SVGID_8_">
			<use xlink:href="#SVGID_7_"  overflow="visible"/>
		</clipPath>
		<path clip-path="url(#SVGID_8_)" fill="#FFFFFF" d="M24.2,24.8c0.3,0,0.6-0.2,0.8-0.4l1.1,1.1c-0.5,0.4-1.1,0.7-1.7,0.8L24.2,24.8
			z"/>
	</g>
	<polygon fill="#FFFFFF" points="14.4,31.8 14.6,30.3 21.3,31.3 21.1,32.8 	"/>
	<polygon fill="#FFFFFF" points="14.4,28.3 21.1,27.3 21.3,28.8 14.6,29.7 	"/>
	<g>
		<defs>
			<rect id="SVGID_9_" width="100" height="100"/>
		</defs>
		<clipPath id="SVGID_10_">
			<use xlink:href="#SVGID_9_"  overflow="visible"/>
		</clipPath>
		<path clip-path="url(#SVGID_10_)" fill="#FFFFFF" d="M27.5,31.8c0-0.3,0-0.5,0.1-0.8v0l1.6,0.2c0,0.2,0,0.4,0,0.5
			c0,0.2,0,0.3,0,0.5l-1.6,0.2C27.5,32.2,27.5,32,27.5,31.8"/>
		<path clip-path="url(#SVGID_10_)" fill="#FFFFFF" d="M33.3,31.9c0.4-0.6,0.6-1.2,0.6-1.9c0-0.7-0.2-1.3-0.6-1.9l1.3-0.8
			c0.6,0.8,0.8,1.8,0.8,2.7c0,0.9-0.3,1.9-0.8,2.7L33.3,31.9z"/>
		<path clip-path="url(#SVGID_10_)" fill="#FFFFFF" d="M27.5,28.3c0-0.2,0-0.4,0.1-0.7l1.6,0.2c0,0.2,0,0.3,0,0.5c0,0.2,0,0.4,0,0.5
			L27.5,29C27.5,28.8,27.5,28.5,27.5,28.3"/>
	</g>
	<polygon fill="#FFFFFF" points="24.9,24.5 27.6,21.2 28.9,22.1 26.1,25.4 	"/>
	<g>
		<defs>
			<rect id="SVGID_11_" width="100" height="100"/>
		</defs>
		<clipPath id="SVGID_12_">
			<use xlink:href="#SVGID_11_"  overflow="visible"/>
		</clipPath>
		<path clip-path="url(#SVGID_12_)" fill="#FFFFFF" d="M45.1,38.4c-0.6-0.4-1-1.1-1-1.8c0-0.1,0-0.3,0.1-0.4v0l1,0.2
			c0,0.1,0,0.2,0,0.2c0,0.4,0.2,0.7,0.5,0.9c0.2,0.1,0.4,0.2,0.7,0.2c0.2,0,0.5-0.1,0.7-0.2c0.3-0.2,0.5-0.6,0.5-0.9
			c0-0.1,0-0.2,0-0.2l1-0.2c0,0.1,0,0.3,0,0.4c0,0.7-0.4,1.4-1,1.8c-0.4,0.2-0.8,0.4-1.2,0.4S45.5,38.7,45.1,38.4"/>
	</g>
	<polygon fill="#FFFFFF" points="61.9,45.7 62.6,45.1 63.7,46.2 63.1,46.8 	"/>
	<polygon fill="#FFFFFF" points="61.9,45.7 62.6,45.1 63.7,46.2 63.1,46.8 	"/>
	<rect x="59.1" y="35.5" fill="#FFFFFF" width="4.1" height="1"/>
	<rect x="60.8" y="43.7" fill="#FFFFFF" width="1.6" height="0.3"/>
	<g>
		<defs>
			<rect id="SVGID_13_" width="100" height="100"/>
		</defs>
		<clipPath id="SVGID_14_">
			<use xlink:href="#SVGID_13_"  overflow="visible"/>
		</clipPath>
		<path clip-path="url(#SVGID_14_)" fill="#FFFFFF" d="M59.3,38.5c-0.7-0.4-1.1-1.1-1.1-1.9c0-0.1,0-0.3,0.1-0.4l1,0.2
			c0,0.1,0,0.2,0,0.2c0,0.4,0.2,0.8,0.6,1c0.2,0.1,0.4,0.1,0.6,0.1c0.3,0,0.6-0.1,0.8-0.3c0.2-0.2,0.4-0.5,0.4-0.8
			c0-0.2,0-0.3-0.1-0.5l1-0.4c0.1,0.3,0.2,0.6,0.2,0.9c0,0.6-0.2,1.1-0.7,1.6c-0.4,0.4-1,0.6-1.5,0.6C60,38.8,59.7,38.7,59.3,38.5"
			/>
		<path clip-path="url(#SVGID_14_)" fill="#FFFFFF" d="M24.2,35.3l0.2-1.5c0.6,0.1,1.2,0.4,1.7,0.8v0L25,35.6
			C24.7,35.4,24.5,35.3,24.2,35.3"/>
	</g>
	<polygon fill="#FFFFFF" points="24.9,35.6 26.1,34.6 28.9,38 27.6,38.9 	"/>
	<g>
		<defs>
			<rect id="SVGID_15_" width="100" height="100"/>
		</defs>
		<clipPath id="SVGID_16_">
			<use xlink:href="#SVGID_15_"  overflow="visible"/>
		</clipPath>
		<path clip-path="url(#SVGID_16_)" fill="#FFFFFF" d="M21.5,45.1l0.3-1.5c0.4,0.1,0.9,0.1,1.3,0.1c0.5,0,0.9,0,1.4-0.1l0.3,1.5
			c-0.5,0.1-1.1,0.1-1.7,0.1C22.6,45.2,22,45.2,21.5,45.1"/>
		<path clip-path="url(#SVGID_16_)" fill="#FFFFFF" d="M35.3,36.2l0.7-0.7c0.2,0.2,0.7,0.4,1.1,0.4c0,0,0.1,0,0.1,0l0.1,1
			c-0.1,0-0.1,0-0.2,0C36.4,36.8,35.7,36.5,35.3,36.2"/>
	</g>
	<path fill="#FFFFFF" d="M22.8,20.3l-0.4,0L22,20.4l-0.4,0.1l-0.4,0.1l-0.4,0.1l-0.4,0.1L20.2,21l-0.3,0.2l-0.3,0.2l-0.3,0.2
		l-0.3,0.2l-0.3,0.3l-0.3,0.3l-0.3,0.3l-0.3,0.3l-0.3,0.3l-0.3,0.4l-0.2,0.4l-0.2,0.4L16.4,25l-0.2,0.4L16,25.8l-0.2,0.4l-0.1,0.5
		l-0.1,0.5l-0.1,0.5l-0.1,0.5l-0.1,0.5L15.3,29l0,0.5l0,0.5l0,0.5l0,0.5l0.1,0.5l0.1,0.5l0.1,0.5l0.1,0.5l0.1,0.5l0.1,0.5l0.2,0.4
		l0.2,0.4l0.2,0.4l0.2,0.4l0.2,0.4l0.2,0.4l0.3,0.4l0.3,0.3l0.3,0.3l0.3,0.3l0.3,0.3l0.3,0.3l0.3,0.3l0.3,0.2l0.3,0.2l0.3,0.2
		l0.4,0.2l0.4,0.1l0.4,0.1l0.4,0.1l0.4,0.1l0.4,0.1l0.4,0l0.4,0l0.4,0l0.4,0l0.4-0.1l0.4-0.1l0.4-0.1l0.4-0.1l0.4-0.1L26,39l0.4-0.2
		l0.3-0.2l0.3-0.2l0.3-0.2l0.3-0.3l0.3-0.3l0.3-0.3l0.3-0.3l0.3-0.3l0.3-0.4l0.2-0.4l0.2-0.4l0.2-0.4l0.2-0.4l0.2-0.4l0.2-0.4
		l0.1-0.5l0.1-0.5l0.1-0.5l0.1-0.5l0.1-0.5l0.1-0.5l0-0.5l0-0.5l0-0.5l0-0.5l0-0.5l-0.1-0.5l-0.1-0.5l-0.1-0.5l-0.1-0.5l-0.1-0.5
		l-0.2-0.4L30,25.4L29.8,25l-0.2-0.4l-0.2-0.4l-0.2-0.4l-0.3-0.4l-0.3-0.3l-0.3-0.3L28,22.5l-0.3-0.3l-0.3-0.3l-0.3-0.2l-0.3-0.2
		l-0.3-0.2L26.1,21l-0.3-0.2l-0.4-0.1L25,20.6l-0.4-0.1l-0.4-0.1l-0.4-0.1l-0.4,0l-0.4,0L22.8,20.3z M23.1,40.5l0,0.8l-0.5,0l-0.5,0
		l-0.5-0.1L21.2,41l-0.5-0.1l-0.5-0.2l-0.4-0.2l-0.4-0.2L19,40.1l-0.4-0.3l-0.4-0.3l-0.4-0.3L17.4,39L17,38.6l-0.3-0.4l-0.3-0.4
		L16,37.5l-0.3-0.4l-0.3-0.4l-0.3-0.4L15,35.7l-0.2-0.5l-0.2-0.5l-0.2-0.5l-0.2-0.5l-0.1-0.5l-0.1-0.5l-0.1-0.5l-0.1-0.5l-0.1-0.5
		l0-0.5l0-0.5l0-0.5l0-0.5l0.1-0.5l0.1-0.5l0.1-0.5l0.1-0.5l0.1-0.5l0.2-0.5l0.2-0.5l0.2-0.5l0.2-0.5l0.2-0.5l0.3-0.5l0.3-0.4
		l0.3-0.4l0.3-0.4l0.3-0.4l0.4-0.4l0.4-0.3l0.4-0.3l0.4-0.3l0.4-0.3l0.4-0.2l0.4-0.2l0.4-0.2l0.5-0.2l0.5-0.1l0.5-0.1l0.5-0.1
		l0.5-0.1l0.5,0l0.5,0l0.5,0l0.5,0l0.5,0.1l0.5,0.1l0.5,0.1l0.5,0.2l0.4,0.2l0.4,0.2l0.4,0.2l0.4,0.3l0.4,0.3l0.4,0.3l0.4,0.3
		l0.4,0.3l0.3,0.4l0.3,0.4l0.3,0.4l0.3,0.4l0.3,0.4l0.3,0.4l0.2,0.5l0.2,0.5l0.2,0.5l0.2,0.5l0.2,0.5l0.1,0.5l0.1,0.5l0.1,0.5
		l0.1,0.5l0.1,0.5l0,0.5l0,0.5l0,0.5l0,0.5l-0.1,0.5l-0.1,0.5l-0.1,0.5l-0.1,0.5L32,33.8l-0.2,0.5l-0.2,0.5l-0.2,0.5l-0.2,0.5
		L31,36.2l-0.3,0.5l-0.3,0.4l-0.3,0.4l-0.3,0.4l-0.3,0.4l-0.4,0.4L28.8,39l-0.4,0.3L28,39.6l-0.4,0.3l-0.4,0.3l-0.4,0.2l-0.4,0.2
		l-0.4,0.2l-0.5,0.1L25,41l-0.5,0.1L24,41.2l-0.5,0l-0.4,0L23.1,40.5z"/>
	<path fill="#FFFFFF" d="M24.5,26.3l-0.1,0l-0.1,0l-0.1,0l-0.1,0l-0.1,0l-0.1,0l-0.1,0.1l-0.1,0.1l-0.1,0.1l-0.1,0.1L23,26.8
		L22.9,27l-0.1,0.1l-0.1,0.1l-0.1,0.1l-0.1,0.1l-0.1,0.1l-0.1,0.1l-0.1,0.2L22.1,28L22,28.2L22,28.3l-0.1,0.2l-0.1,0.2l0,0.2l0,0.2
		l0,0.2l0,0.2l0,0.2l0,0.2l0,0.2v0.2l0,0.2l0,0.2l0,0.2l0,0.2l0,0.2l0,0.2l0.1,0.2l0.1,0.2l0.1,0.2l0.1,0.2l0.1,0.2l0.1,0.1l0.1,0.1
		l0.1,0.1l0.1,0.1l0.1,0.1l0.1,0.1l0.1,0.1l0.1,0.1l0.1,0.1l0.1,0.1l0.1,0.1l0.1,0.1l0.1,0.1l0.1,0l0.1,0.1l0.1,0l0.1,0l0.1,0l0.1,0
		l0.2,0l0.1,0l0.1,0l0.1,0l0.1,0l0.1,0l0.1,0l0.1-0.1l0.1-0.1l0.1-0.1l0.1-0.1l0.1-0.1l0.1-0.1l0.1-0.1l0.1-0.1l0.1-0.1l0.1-0.1
		l0.1-0.1l0.1-0.1l0.1-0.1l0.1-0.2l0.1-0.1l0.1-0.2l0.1-0.1l0.1-0.2l0.1-0.2l0.1-0.2l0-0.2l0-0.2l0-0.2l0-0.2l0-0.2l0-0.2l0-0.2
		l0-0.2l0-0.2l0-0.2l0-0.2l-0.1-0.2l0-0.2l-0.1-0.2l0-0.1l-0.1-0.2l-0.1-0.2l-0.1-0.2L27,27.7l-0.1-0.1l-0.1-0.1l-0.1-0.1l-0.1-0.1
		l-0.1-0.1L26.4,27l-0.1-0.1l-0.1-0.1L26,26.7l-0.1-0.1l-0.1-0.1l-0.1-0.1l-0.1-0.1l-0.1,0l-0.1,0l-0.1,0l-0.1,0l-0.1,0l-0.1,0
		L24.5,26.3z M24.6,34.5l0,0.7l-0.2,0l-0.2,0l-0.2,0l-0.2,0l-0.2-0.1L23.2,35L23,35l-0.2-0.1l-0.2-0.1l-0.2-0.1l-0.2-0.1L22,34.3
		l-0.2-0.2L21.6,34l-0.2-0.2l-0.2-0.2l-0.1-0.2L21,33.3l-0.1-0.2l-0.1-0.2l-0.1-0.2l-0.1-0.2l-0.1-0.2L20.4,32l-0.1-0.3l-0.1-0.2
		l-0.1-0.2L20.1,31l0-0.3l0-0.2l0-0.3l0-0.2l0-0.3l0-0.2l0-0.3l0-0.2l0-0.2l0.1-0.2l0.1-0.3l0.1-0.2l0.1-0.2l0.1-0.2l0.1-0.2
		l0.1-0.2l0.1-0.2l0.1-0.2l0.1-0.2l0.1-0.2l0.2-0.2l0.2-0.2l0.2-0.2l0.2-0.2l0.2-0.1l0.2-0.1l0.2-0.1l0.2-0.1l0.2-0.1l0.2-0.1
		l0.2-0.1l0.2-0.1l0.2,0l0.2,0l0.2,0l0.2,0l0.2,0l0.2,0l0.2,0l0.2,0.1l0.2,0.1l0.2,0.1l0.2,0.1l0.2,0.1l0.2,0.1l0.2,0.1l0.2,0.1
		l0.2,0.1l0.2,0.2l0.2,0.2l0.2,0.2l0.2,0.2l0.2,0.2l0.1,0.2l0.1,0.2l0.1,0.2l0.1,0.2l0.1,0.2l0.1,0.3l0.1,0.2l0.1,0.3l0.1,0.2
		l0.1,0.3l0,0.2l0,0.3l0,0.2l0,0.2l0,0.3l0,0.2l0,0.3l0,0.3l0,0.2l-0.1,0.3L29,31.5L29,31.8L28.9,32l-0.1,0.3l-0.1,0.2l-0.1,0.2
		l-0.1,0.2l-0.1,0.2l-0.1,0.2l-0.1,0.2l-0.2,0.2l-0.2,0.2l-0.2,0.2l-0.2,0.2l-0.2,0.1l-0.2,0.1l-0.2,0.1l-0.2,0.1l-0.2,0.1L26.2,35
		L26,35.1l-0.2,0.1l-0.2,0.1l-0.2,0l-0.2,0l-0.2,0l-0.2,0v0L24.6,34.5z"/>
	<polygon fill="#FFFFFF" points="27.6,32.6 29,32.1 30.8,36 29.3,36.5 	"/>
	<polygon fill="#FFFFFF" points="67.4,46.2 68.5,45.1 69.1,45.7 68,46.8 	"/>
	<polygon fill="#FFFFFF" points="67.4,46.2 68.5,45.1 69.1,45.7 68,46.8 	"/>
	<rect x="63.9" y="51.7" fill="#FFFFFF" width="1.6" height="0.5"/>
	<rect x="65.6" y="51.7" fill="#FFFFFF" width="1.6" height="0.5"/>
	<rect x="67.1" y="32.1" fill="#FFFFFF" width="1.6" height="7.2"/>
	<path fill="#FFFFFF" d="M24.3,30.7L24.3,30.7L24.3,30.7L24.3,30.7L24.3,30.7L24.3,30.7l0.1,0l0,0h0l0,0l0,0l0,0l0,0l0.1,0h0l0,0
		l0,0l0,0l0,0l0,0l0,0l0-0.1l0,0l0,0l0-0.1l0,0l0,0l0,0l0,0l0-0.1l0,0l0-0.1l0,0v-0.1l0,0l0-0.1l0,0l0-0.1l0,0l0,0l0,0l0,0l0-0.1
		l0,0l0,0l0,0l0-0.1h0l0,0l0,0l0,0l0,0l0,0l0,0l-0.1-0.1l0,0l0,0l-0.1,0h0l0,0l0,0l0,0h0l0,0l0,0h0l0,0l0,0l0,0l0,0l0,0l0,0l0,0
		l-0.1,0l0,0l0,0l0,0l0,0l0,0l0,0l0,0l0,0l0,0l0,0l0,0l0,0l0,0.1l0,0.1l0,0l0,0.1l0,0l0,0.1l0,0l0,0.1l0,0l0,0.1l0,0v0.1l0,0l0,0.1
		v0l0,0.1l0,0l0,0.1l0,0l0,0.1l0,0l0,0.1l0,0.1l0,0l0,0l0,0l0,0l0,0l0,0l0,0L24.3,30.7l-0.1-0.1L24.3,30.7L24.3,30.7L24.3,30.7
		L24.3,30.7L24.3,30.7L24.3,30.7z M24.5,32.3l0-0.8L24.5,32.3l-0.2,0l-0.1,0l-0.1,0l-0.1,0l-0.1,0l-0.1,0l-0.1,0l-0.1,0l-0.1,0
		L23.4,32l-0.1,0l-0.1-0.1l-0.1,0l-0.1-0.1L23,31.6L23,31.6l-0.1-0.1l-0.1-0.1l-0.1-0.1l-0.1-0.1l0-0.1l0-0.1l-0.1-0.1l0-0.1l0-0.1
		l0-0.1l0-0.1l0-0.1l0-0.1l0-0.1l0-0.1v-0.1l0-0.1l0-0.1l0-0.1l0-0.1l0-0.1l0-0.1l0-0.1l0-0.1l0.1-0.2l0-0.1l0-0.1l0.1-0.1l0-0.1
		l0.1-0.1l0-0.1l0.1-0.1l0.1-0.1l0.1-0.1l0.1,0l0.1-0.1l0.1,0l0.1-0.1l0.1-0.1l0.1,0l0.1-0.1l0.1,0l0.1,0l0.1,0l0.1,0l0.1,0l0.1,0
		h0.1l0.1,0l0.1,0l0.1,0l0.1,0l0.1,0l0.1,0l0.1,0l0,0l0.1,0.1l0.1,0.1l0,0l0.1,0.1l0.1,0.1l0.1,0l0.1,0.1l0,0.1l0.1,0.1l0.1,0.1
		l0,0.1l0,0.1l0.1,0.1l0.1,0.1l0,0.1l0,0.1l0,0.1l0,0.1l0,0.1l0,0.1l0,0.1l0,0.1l0,0.1v0.1v0.1l0,0.1l0,0.1l0,0.1l0,0.1l0,0.1l0,0.1
		l0,0.1l0,0.1l0,0.1l-0.1,0.1l0,0.1l0,0.1l-0.1,0.1L26,31.5l0,0.1l-0.1,0.1l-0.1,0.1l-0.1,0.1l-0.1,0.1l0,0L25.4,32L25.3,32l-0.1,0
		l-0.1,0l-0.1,0l-0.1,0l-0.1,0l-0.1,0l-0.1,0L24.5,32.3L24.5,32.3z"/>
	<polygon fill="#FFFFFF" points="45.1,44.8 45.1,98.4 48,98.4 48,47.7 83.1,47.7 83.1,98.4 86,98.4 86,44.8 	"/>
	<polygon fill="#FFFFFF" points="50.3,50.9 50.3,98.4 51.9,98.4 51.9,52.4 79.2,52.4 79.2,98.4 80.8,98.4 80.8,50.9 	"/>
	<path fill="#FFFFFF" d="M57.5,56.9l1.2,2H61l1.2-2L61,55h-2.4L57.5,56.9z M57.7,60.4l-2.1-3.5l2.1-3.5h3.7v0.8v-0.8h0.5l2.1,3.5
		l-2.1,3.5H57.7z"/>
	<path fill="#FFFFFF" d="M68.9,56.9l1.2,2h2.4l1.2-2l-1.2-2h-2.4L68.9,56.9z M72.9,59.6v-0.8 M69.1,60.4L67,56.9l2.1-3.5h4.2
		l2.1,3.5L73.6,60l-0.2,0.4H69.1z"/>
	<path fill="#FFFFFF" d="M57.5,64.9l1.2,2H61l1.2-2l-1.2-2h-2.4L57.5,64.9z M57.7,68.3l-2.1-3.5l2.1-3.5h3.7v0.8v-0.8h0.5l2.1,3.5
		l-2.1,3.5H57.7z"/>
	<path fill="#FFFFFF" d="M68.9,64.9l1.2,2h2.4l1.2-2l-1.2-1.9h-2.4L68.9,64.9z M72.9,67.6v-0.7 M69.1,68.3L67,64.9l2.1-3.5h4.2
		l2.1,3.5l-1.9,3.1l-0.2,0.4H69.1z"/>
	<path fill="#FFFFFF" d="M57.5,72.8l1.2,2H61l1.2-2l-1.2-2h-2.4L57.5,72.8z M61.5,75.5v-0.8 M57.7,76.3l-2.1-3.5l2.1-3.5h4.2
		l2.1,3.5l-1.9,3.1l-0.2,0.4H57.7z"/>
	<path fill="#FFFFFF" d="M72.4,74.8l1.2-2l-1.2-2h-2.4l-1.2,2l1.2,2H72.4z M69.6,76.3v-0.8l0.7-0.4l-0.7,0.4V76.3h-0.5L67,72.8
		l2.1-3.5h4.2l2.1,3.5l-2.1,3.5H69.6z"/>
	<path fill="#FFFFFF" d="M68.9,80.7l1.2,2h2.4l1.2-2l-1.2-1.9h-2.4L68.9,80.7z M69.6,84.2v-0.8l0.7-0.4l-0.7,0.4V84.2h-0.5L67,80.7
		l2.1-3.5h4.2l2.1,3.5l-2.1,3.5H69.6z"/>
	<path fill="#FFFFFF" d="M57.5,80.7l1.2,2H61l1.2-2l-1.2-2h-2.4L57.5,80.7z M61.5,83.4v-0.7 M57.7,84.2l-2.1-3.5l2.1-3.5h4.2
		l2.1,3.5l-1.9,3.1l-0.2,0.4H57.7z"/>
	<path fill="#FFFFFF" d="M57.5,88.7l1.2,2H61l1.2-2l-1.2-2h-2.4L57.5,88.7z M57.7,92.1l-2.1-3.5l2.1-3.5h3.7V86v-0.8h0.5l2.1,3.5
		l-2.1,3.5H57.7z"/>
	<path fill="#FFFFFF" d="M68.9,88.7l1.2,2h2.4l1.2-2l-1.2-1.9h-2.4L68.9,88.7z M72.9,91.4v-0.8 M69.1,92.1L67,88.7l2.1-3.5h4.2
		l2.1,3.5l-1.9,3.1l-0.2,0.4H69.1z"/>
	<polygon fill="#FFFFFF" points="61.5,93.1 61.5,93.9 61.5,93.1 57.7,93.1 55.6,96.6 56.7,98.4 58.6,98.4 57.5,96.6 58.6,94.6 
		61,94.6 62.2,96.6 61.1,98.4 62.9,98.4 64,96.6 61.9,93.1 	"/>
	<polygon fill="#FFFFFF" points="72.8,93.1 72.8,93.9 72.8,93.1 69,93.1 66.9,96.6 68,98.4 69.9,98.4 68.8,96.6 69.9,94.6 
		72.3,94.6 73.5,96.6 72.4,98.4 74.2,98.4 75.3,96.6 73.2,93.1 	"/>
	<path fill="#FFFFFF" d="M62.5,44.9h6.1v-4.6h-6.1V44.9z M60.6,46.7v-7.3v-0.9h9.9v8.2H60.6z"/>
	<g>
		<defs>
			<rect id="SVGID_17_" width="100" height="100"/>
		</defs>
		<clipPath id="SVGID_18_">
			<use xlink:href="#SVGID_17_"  overflow="visible"/>
		</clipPath>
		<path clip-path="url(#SVGID_18_)" fill="#FFFFFF" d="M64.6,22.6h1.8v-0.8h-1.8L64.6,22.6z M67,23.1v-0.5 M63.6,23.6v-0.5v-1.8
			l0.1-0.1c0.2-0.2,0.5-0.4,0.8-0.4h2.1c0.3,0,0.6,0.1,0.8,0.4l0.1,0.1v0.2v1.6v0.5H63.6z"/>
		<path clip-path="url(#SVGID_18_)" fill="#FFFFFF" d="M67.1,27.9v-3.8v-0.1H64v0.1v3.6h-1.6v-3.6v-0.5c0-0.3,0.1-0.6,0.4-0.8
			c0.2-0.2,0.5-0.3,0.8-0.3h4c0.3,0,0.6,0.1,0.8,0.3c0.2,0.2,0.3,0.5,0.3,0.8v0.5v3.8h0H67.1z"/>
		<path clip-path="url(#SVGID_18_)" fill="#FFFFFF" d="M23.1,45.2L23.1,45.2L23.1,45.2L23.1,45.2L23.1,45.2L23.1,45.2L23.1,45.2
			L23.1,45.2L23.1,45.2L23.1,45.2L23.1,45.2L23.1,45.2L23.1,45.2L23.1,45.2L23.1,45.2L23.1,45.2L23.1,45.2L23.1,45.2l-0.1,0
			l-1.5-0.1c-0.6-0.1-1.2-0.2-1.8-0.5c-0.7-0.4-1.3-0.7-1.9-1c-1.3-0.4-2.3-1.3-2.8-2.5l0-0.1l0-0.1c-0.1-0.5-0.4-1-0.9-1.3
			c-1.1-0.6-1.8-1.7-1.8-2.9c0-0.2,0-0.5,0.1-0.7c0.1-0.3,0.1-0.5,0.1-0.8c0-0.8-0.3-1.6-0.9-2.4C11,32,10.8,31,10.8,30.1
			c0-0.9,0.3-1.9,0.9-2.7c0.5-0.7,0.8-1.5,0.8-2.3c0-0.3,0-0.6-0.1-0.8c-0.1-0.3-0.1-0.5-0.1-0.8c0-1.2,0.6-2.3,1.8-2.9
			c0.5-0.3,0.8-0.7,0.9-1.3l0-0.1l0-0.1c0.5-1.2,1.5-2.1,2.6-2.5c0.7-0.4,1.3-0.7,2.1-1.1c0.5-0.3,1.1-0.4,1.7-0.5
			c0.6-0.1,1.2-0.1,1.7-0.1c0.6,0,1.1,0,1.7,0.1c0.6,0.1,1.2,0.3,1.8,0.5c0.7,0.4,1.3,0.7,1.9,1c1.3,0.4,2.3,1.3,2.8,2.5l0,0.1
			l0,0.1c0,0.5,0.4,1,0.9,1.3c1.1,0.6,1.7,1.7,1.7,2.9c0,0.2,0,0.5-0.1,0.7c-0.1,0.3-0.1,0.5-0.1,0.8c0,0.8,0.3,1.6,0.8,2.4
			c0.6,0.8,0.8,1.8,0.8,2.7c0,0.9-0.3,1.9-0.9,2.7c-0.5,0.7-0.8,1.5-0.8,2.3c0,0.3,0,0.5,0.1,0.8c0.1,0.2,0.1,0.5,0.1,0.7
			c0,1.2-0.7,2.3-1.8,2.9c-0.5,0.2-0.8,0.7-0.9,1.3l0,0.1l0,0.1c-0.5,1.2-1.5,2.1-2.7,2.5c-0.7,0.3-1.3,0.7-2.1,1.1
			c-0.5,0.3-1.1,0.4-1.7,0.5l-0.2-1.5c0.4-0.1,0.9-0.2,1.2-0.3c0.7-0.4,1.4-0.8,2.2-1.2c0.8-0.3,1.4-0.8,1.8-1.6
			c0.1-1,0.8-1.9,1.7-2.3c0.6-0.3,1-0.9,1-1.6c0-0.1,0-0.3-0.1-0.4c-0.1-0.4-0.1-0.7-0.1-1.1c0-1.1,0.4-2.3,1.1-3.2
			c0.4-0.6,0.6-1.2,0.6-1.9c0-0.7-0.2-1.3-0.6-1.8c-0.7-0.9-1.1-2.1-1.1-3.2c0-0.4,0-0.7,0.1-1.1c0-0.1,0.1-0.3,0.1-0.4
			c0-0.6-0.4-1.2-0.9-1.5c-1-0.5-1.6-1.4-1.7-2.4c-0.3-0.7-1-1.3-1.9-1.6c-0.8-0.4-1.4-0.7-2.1-1.1c-0.4-0.2-0.8-0.3-1.3-0.4
			c-0.5-0.1-0.9-0.1-1.4-0.1c-0.5,0-1,0-1.5,0.1c-0.4,0.1-0.9,0.2-1.2,0.3c-0.7,0.4-1.4,0.8-2.2,1.2c-0.8,0.3-1.4,0.8-1.8,1.6
			c-0.1,1-0.8,1.9-1.7,2.4c-0.6,0.3-0.9,0.9-0.9,1.6c0,0.1,0,0.3,0.1,0.4c0.1,0.4,0.1,0.8,0.1,1.1c0,1.1-0.4,2.2-1.1,3.1
			c-0.4,0.6-0.6,1.2-0.6,1.9c0,0.7,0.2,1.3,0.6,1.8c0.7,0.9,1.1,2.1,1.1,3.2c0,0.4,0,0.7-0.1,1.1c0,0.1-0.1,0.3-0.1,0.4
			c0,0.6,0.4,1.2,0.9,1.6c1,0.5,1.6,1.3,1.7,2.4c0.3,0.7,1,1.3,1.9,1.6c0.8,0.4,1.4,0.7,2.1,1.1c0.4,0.2,0.8,0.3,1.2,0.4l1.4,0.1h0
			h0h0h0h0h0h0h0h0h0h0h0h0h0h0h0h0h0h0L23.1,45.2L23.1,45.2z"/>
		<path clip-path="url(#SVGID_18_)" fill="#FFFFFF" d="M26,14.9L26,14.9 M26.2,14.9L26.2,14.9 M26.2,14.9L26.2,14.9 M26.2,14.9
			L26.2,14.9 M26.6,14.9L26.6,14.9 M26.9,14.9L26.9,14.9L26.9,14.9L26.9,14.9z M27.1,14.9L27.1,14.9L27.1,14.9L27.1,14.9z
			 M27.1,14.9L27.1,14.9L27.1,14.9L27.1,14.9z M27.2,15L27.2,15L27.2,15L27.2,15L27.2,15z M26.2,16.4L26.2,16.4L26.2,16.4L26.2,16.4
			L26.2,16.4z M26.5,14.9L26.5,14.9L26.5,14.9L26.5,14.9z M26.8,14.9L26.8,14.9L26.8,14.9L26.8,14.9L26.8,14.9z M27.3,15L27.3,15
			L27.3,15L27.3,15L27.3,15z M27.5,15L27.5,15 M27.6,15L27.6,15L27.6,15L27.6,15z M27.6,15L27.6,15L27.6,15z M26.9,16.4L26.9,16.4
			L26.9,16.4L26.9,16.4z M27.1,16.5L27.1,16.5L27.1,16.5L27.1,16.5z M25.7,45.2H23v-1.5h2.7h0.1c0.9,0,1.7-0.2,2.4-0.5
			c0.7-0.4,1.4-0.8,2.2-1.2c0.8-0.3,1.4-0.8,1.8-1.6c0.1-1,0.8-1.9,1.7-2.4c0.6-0.3,0.9-0.9,0.9-1.6c0-0.1,0-0.3,0-0.4
			c-0.1-0.4-0.1-0.7-0.1-1.1c0-1.1,0.4-2.3,1.1-3.2c0.4-0.6,0.6-1.2,0.6-1.9c0-0.7-0.2-1.3-0.5-1.8c-0.7-0.9-1.1-2.1-1.1-3.2
			c0-0.4,0-0.7,0.1-1.1c0-0.1,0-0.3,0-0.4c0-0.6-0.4-1.2-0.9-1.5c-1-0.5-1.6-1.4-1.7-2.4c-0.3-0.7-1-1.3-1.9-1.6
			c-0.8-0.4-1.4-0.7-2.1-1.1c-0.3-0.2-0.7-0.3-1-0.3l-0.1,0l0,0l-0.1,0h0l0,0h0h0l0,0v0l-0.1,0l0,0l0,0l0,0h-0.1l0,0h0l0,0l0,0h0h0
			l-0.1,0l0,0l0,0h0h0l0,0l-0.1,0h0l0,0l0,0l0,0l-0.1,0h0h0h0h-0.1l0,0h0l0,0h0l0,0h0h0l0,0l0.1,0l-0.1,0h0l-0.1,0h0h0h0h0l0,0
			l-0.1,0h0h0h-0.1H26l0,0h0h0h-0.1h0l-0.1,0h0h0h0h0h0h0h-0.1h0h0h0h0l-0.1,0l0.1,0h0h-2.7v-1.5h2.7l0.1,0l-0.1,0h0h0h0l0.1,0l0,0
			h0h0h0h0h0l0.1,0h0l0.1,0l0,0h0h0h0h0h0h0.1l0,0l0,0h0h0h0l0.1,0l0.1,0h0l0,0h0l0.1,0l0,0h0.1l0,0h0l0,0l0,0h0l0,0l0,0h0l0.1,0h0
			h0l0,0h0h0l0,0h0l0.1,0h0l0,0l0.1,0l0,0h0l0,0l0,0l0,0l0,0l0,0l0.1,0h0l0,0l0,0l0,0h0l0,0h0l0.1,0l-0.1,0l0,0l0.1,0h0l0,0l0.1,0
			l0,0h0h0l0,0l0.1,0l0,0h0l0,0h0c0,0,0,0,0.1,0c0.5,0.1,1,0.3,1.6,0.5c0.7,0.4,1.3,0.7,1.9,1c1.3,0.4,2.3,1.3,2.8,2.5l0,0.1l0,0.1
			c0,0.5,0.4,1,0.9,1.3c1.1,0.6,1.7,1.7,1.7,2.9c0,0.2,0,0.5-0.1,0.7c-0.1,0.3-0.1,0.5-0.1,0.8c0,0.8,0.3,1.6,0.8,2.4
			c0.6,0.8,0.8,1.8,0.8,2.7c0,0.9-0.3,1.9-0.9,2.7c-0.5,0.7-0.8,1.5-0.8,2.3c0,0.3,0,0.5,0.1,0.8c0.1,0.2,0.1,0.5,0.1,0.7
			c0,1.2-0.6,2.3-1.8,2.9c-0.5,0.3-0.8,0.7-0.9,1.3l0,0.1l0,0.1c-0.5,1.2-1.5,2.1-2.7,2.5c-0.7,0.4-1.3,0.7-2.1,1.1
			c-1,0.4-2.1,0.6-3.2,0.6H25.7z"/>
		<path clip-path="url(#SVGID_18_)" fill="#FFFFFF" d="M66.1,55.2c0-0.1-0.1-0.3-0.2-0.4c-0.1-0.1-0.3-0.2-0.4-0.2
			c-0.2,0-0.3,0.1-0.4,0.2C65,54.9,65,55,65,55.2h-0.5c0-0.3,0.1-0.6,0.3-0.8c0.2-0.2,0.5-0.3,0.8-0.3c0.3,0,0.6,0.1,0.8,0.3
			c0.2,0.2,0.3,0.5,0.3,0.8H66.1z"/>
	</g>
	<path fill="#FFFFFF" d="M53.1,66.2v-0.3 M52.5,67.3l0.7,1.2h1.4l0.7-1.2l-0.7-1.2h-1.4L52.5,67.3z M54.8,69h-1.9l-1-1.7l0.1-0.1
		l0.9-1.4l0.1-0.1h0.2H55l1,1.7L55,69H54.8z"/>
	<path fill="#FFFFFF" d="M75.7,67.3l0.7,1.2h1.4l0.7-1.2l-0.7-1.2h-1.4L75.7,67.3z M78,68.8v-0.3 M78,69h-1.9l-1-1.7l1-1.7h0.2h1.9
		l1,1.7l-0.1,0.1l-0.9,1.4L78.2,69H78z"/>
	<g>
		<defs>
			<rect id="SVGID_19_" width="100" height="100"/>
		</defs>
		<clipPath id="SVGID_20_">
			<use xlink:href="#SVGID_19_"  overflow="visible"/>
		</clipPath>
		<path clip-path="url(#SVGID_20_)" fill="#FFFFFF" d="M42.6,35.8c0.8-0.1,1.5-0.8,1.5-1.7v-8.3c0-0.8-0.6-1.5-1.5-1.7l0.2-1
			c1.4,0.2,2.3,1.4,2.3,2.7v8.3c0,1.3-1,2.4-2.3,2.7L42.6,35.8z"/>
		<path clip-path="url(#SVGID_20_)" fill="#FFFFFF" d="M57.8,35.8c0.5,0,0.9-0.2,1.2-0.5c0.3-0.3,0.5-0.7,0.5-1.2v-1.6v-0.4h1.1v0.4
			v1.6c0,0.7-0.3,1.4-0.8,1.9c-0.5,0.5-1.2,0.8-2,0.8H49H36.8v-1h10c-0.4-0.5-0.6-1.1-0.6-1.7v-8.3c0-0.6,0.2-1.2,0.6-1.7l-9.9,0
			c-0.3,0.1-0.6,0.2-0.9,0.4l-0.7-0.7c0.4-0.3,0.9-0.6,1.5-0.7H49h8.7h1v0.2c0.4,0.1,0.7,0.3,1,0.6c0.5,0.5,0.8,1.2,0.8,1.9v1.6V28
			h-1.1v-0.5v-1.6c0-0.4-0.2-0.9-0.5-1.2c-0.3-0.3-0.8-0.5-1.2-0.5l-8.7,0v0c-0.5,0-0.9,0.2-1.2,0.5c-0.3,0.3-0.5,0.7-0.5,1.2v8.3
			c0,0.4,0.2,0.9,0.5,1.2c0.3,0.3,0.8,0.5,1.2,0.5H57.8z"/>
	</g>
	<path fill="#FFFFFF" d="M49.4,27.6l0-0.5 M49.9,32.4l19.4-0.8l0-3l-19.4-1V32.4z M48.9,27.1v-0.5l20.9,1.1v5l-20.9,0.9V27.1z"/>
	<g>
		<defs>
			<rect id="SVGID_21_" width="100" height="100"/>
		</defs>
		<clipPath id="SVGID_22_">
			<use xlink:href="#SVGID_21_"  overflow="visible"/>
		</clipPath>
		<path clip-path="url(#SVGID_22_)" fill="#FFFFFF" d="M69.9,29.3c-0.1,0.2-0.1,0.4-0.1,0.6c0,0.9,0.6,1.7,1.5,2
			c0.2,0.1,0.5,0.1,0.7,0.1c0.9,0,1.8-0.6,2.1-1.4c0.1-0.2,0.1-0.4,0.1-0.7c0-0.9-0.6-1.7-1.5-2c-0.2-0.1-0.5-0.1-0.7-0.1
			C71.1,27.8,70.2,28.4,69.9,29.3l-1-0.3L69.9,29.3z M70.6,33.8c-1.8-0.6-3-2.2-3-3.9c0-0.4,0.1-0.9,0.2-1.3v0v0
			c0.6-1.7,2.3-2.9,4.2-2.8c0.5,0,0.9,0.1,1.4,0.2c1.8,0.6,3,2.2,3,3.9c0,0.4-0.1,0.9-0.2,1.3C75.5,32.9,73.8,34,72,34
			C71.5,34,71.1,34,70.6,33.8"/>
	</g>
	<polygon fill="#FFFFFF" points="36.3,33.5 36.3,32 40.8,32 40.8,32 40.8,32 40.9,32 40.9,31.9 40.9,31.9 40.9,31.9 41,31.8 
		41,31.9 41,31.8 41,31.8 41,31.7 41,31.7 41.1,31.7 41.1,31.7 41.1,31.6 41.1,31.6 41.1,31.5 41.2,31.5 41.2,31.5 41.2,31.4 
		41.2,31.4 41.2,31.4 41.3,31.3 41.3,31.3 41.3,31.3 41.3,31.2 41.3,31.2 41.3,31.1 41.3,31.1 41.3,31.1 41.4,31 41.4,31 41.4,31 
		41.4,30.9 41.4,30.9 41.4,30.8 41.4,30.7 41.4,30.7 41.4,30.7 41.5,30.6 41.5,30.6 41.5,30.5 41.5,30.4 41.5,30.4 41.5,30.4 
		41.5,30.3 41.5,30.3 41.5,30.2 41.5,30.2 41.5,30.1 41.5,30.1 41.5,30.1 41.5,30 41.5,30 41.5,30 41.5,29.9 41.5,29.9 41.5,29.8 
		41.5,29.8 41.5,29.7 41.5,29.7 41.5,29.7 41.5,29.6 41.5,29.5 41.5,29.5 41.4,29.4 41.4,29.4 41.4,29.4 41.4,29.4 41.4,29.3 
		41.4,29.3 41.4,29.2 41.4,29.2 41.4,29.1 41.4,29.1 41.4,29.1 41.4,29 41.3,29 41.3,29 41.3,28.9 41.3,28.9 41.3,28.8 41.3,28.8 
		41.3,28.8 41.2,28.8 41.2,28.7 41.2,28.7 41.2,28.6 41.2,28.6 41.2,28.6 41.1,28.5 41.1,28.4 41.1,28.4 41.1,28.4 41.1,28.4 
		41,28.3 41,28.3 41,28.2 41,28.3 40.9,28.2 40.9,28.2 41,28.2 40.9,28.1 36.3,28.1 36.3,26.6 41.6,26.6 41.8,26.8 41.9,26.9 42,27 
		42,27 42.1,27.1 42,27.1 42.1,27.1 42.1,27.2 42.2,27.2 42.2,27.3 42.3,27.4 42.3,27.4 42.3,27.5 42.3,27.5 42.4,27.6 42.4,27.6 
		42.4,27.6 42.5,27.7 42.5,27.7 42.5,27.7 42.6,27.8 42.6,27.9 42.6,27.9 42.6,28 42.7,28 42.7,28.1 42.7,28.1 42.7,28.2 42.7,28.2 
		42.8,28.3 42.8,28.3 42.8,28.4 42.8,28.5 42.8,28.5 42.9,28.6 42.9,28.6 42.9,28.7 42.9,28.8 42.9,28.7 42.9,28.8 43,28.9 43,29 
		43,29 43,29.1 43,29.1 43,29.2 43,29.2 43,29.3 43,29.3 43.1,29.4 43,29.4 43.1,29.5 43.1,29.6 43.1,29.6 43.1,29.7 43.1,29.7 
		43.1,29.8 43.1,29.8 43.1,29.9 43.1,30 43.1,30 43.1,30.1 43.1,30.2 43.1,30.2 43.1,30.3 43.1,30.3 43.1,30.4 43.1,30.4 43.1,30.5 
		43.1,30.6 43,30.7 43,30.7 43,30.8 43,30.8 43,30.9 43,30.9 43,31 43,31 43,31.1 42.9,31.2 42.9,31.3 42.9,31.2 42.9,31.3 
		42.9,31.4 42.9,31.5 42.9,31.5 42.8,31.6 42.8,31.6 42.8,31.7 42.8,31.7 42.8,31.8 42.7,31.9 42.7,31.9 42.7,31.9 42.7,32 42.7,32 
		42.6,32.1 42.6,32.1 42.6,32.2 42.5,32.3 42.5,32.3 42.5,32.3 42.5,32.4 42.4,32.5 42.4,32.5 42.4,32.6 42.4,32.5 42.3,32.6 
		42.3,32.7 42.2,32.7 42.2,32.8 42.2,32.8 42.2,32.8 42.1,32.9 42.1,33 42.1,33 42,33 42,33.1 41.9,33.1 41.9,33.2 41.9,33.2 
		41.8,33.2 41.8,33.3 41.5,33.5 	"/>
	<g>
		<defs>
			<rect id="SVGID_23_" width="100" height="100"/>
		</defs>
		<clipPath id="SVGID_24_">
			<use xlink:href="#SVGID_23_"  overflow="visible"/>
		</clipPath>
		<path clip-path="url(#SVGID_24_)" fill="#FFFFFF" d="M44.3,35.8c0.8-0.1,1.5-0.8,1.5-1.7v-8.3c0-0.8-0.6-1.5-1.5-1.7l0.2-1
			c1.4,0.2,2.3,1.4,2.3,2.7v8.3c0,1.3-1,2.4-2.3,2.7L44.3,35.8z"/>
		<path clip-path="url(#SVGID_24_)" fill="#FFFFFF" d="M52.7,26.3L52.7,26.3L52.7,26.3c1,0,2,0.4,2.7,1.1c0.7,0.7,1.1,1.6,1.1,2.7h0
			v0v0h0c0,1-0.4,2-1.1,2.7c-0.7,0.7-1.6,1.1-2.7,1.1v0h0h0v0c-1,0-2-0.4-2.7-1.1c-0.7-0.7-1.1-1.6-1.1-2.7h0v0v0h0
			c0-1,0.4-2,1.1-2.7C50.7,26.7,51.6,26.3,52.7,26.3L52.7,26.3L52.7,26.3z M52.7,27.9L52.7,27.9L52.7,27.9L52.7,27.9L52.7,27.9
			c-0.6,0-1.2,0.3-1.6,0.7c-0.4,0.4-0.7,1-0.7,1.6h0v0v0h0c0,0.6,0.3,1.2,0.7,1.6c0.4,0.4,1,0.7,1.6,0.7v0h0h0v0
			c0.6,0,1.2-0.3,1.6-0.7c0.4-0.4,0.6-1,0.7-1.6h0v0v0h0c0-0.6-0.3-1.2-0.7-1.6C53.8,28.1,53.3,27.9,52.7,27.9"/>
	</g>
</g>
</svg>
