<?xml version="1.0" encoding="utf-8"?>
<!-- Generator: Adobe Illustrator 21.1.0, SVG Export Plug-In . SVG Version: 6.00 Build 0)  -->
<svg version="1.1" id="Ebene_1" xmlns="http://www.w3.org/2000/svg" xmlns:xlink="http://www.w3.org/1999/xlink" x="0px" y="0px"
	 width="100px" height="100px" viewBox="0 0 100 100" enable-background="new 0 0 100 100" xml:space="preserve">
<g>
	<rect x="1.6" y="1.6" fill-rule="evenodd" clip-rule="evenodd" fill="#005680" width="97" height="96.9"/>
	<path fill="#FFFFFF" d="M1.5,0h97h1.5v1.5v96.9v1.5h-1.5h-97H0v-1.5V1.5V0H1.5z M97,3H3v93.9H97V3z"/>
	
		<polygon fill="none" stroke="#FFFFFF" stroke-width="1.5241" stroke-linecap="round" stroke-linejoin="round" stroke-miterlimit="10" points="
		32.7,86.7 32.7,16.6 52.6,20.1 52.6,89.7 	"/>
	
		<polyline fill="none" stroke="#FFFFFF" stroke-width="1.5241" stroke-linecap="round" stroke-linejoin="round" stroke-miterlimit="10" points="
		32.7,16.6 35.1,15.1 39.5,15.9 49.3,12 67.3,14.9 67.3,81 55.2,86 55.2,88.1 52.8,89.7 	"/>
	
		<polyline fill="none" stroke="#FFFFFF" stroke-width="1.5241" stroke-linecap="round" stroke-linejoin="round" stroke-miterlimit="10" points="
		52.6,20.1 55,18.6 55,20.5 67.3,14.9 	"/>
	
		<polygon fill="none" stroke="#FFFFFF" stroke-width="1.0135" stroke-linecap="round" stroke-linejoin="round" stroke-miterlimit="10" points="
		50,86.9 35.1,84.5 35.1,19.4 50,22.1 	"/>
	<g>
		<path fill="#FFFFFF" d="M43,42.9c0,0.5-0.4,0.9-0.9,0.9c-0.5,0-0.9-0.4-0.9-0.9c0-0.5,0.4-0.9,0.9-0.9C42.6,42,43,42.4,43,42.9"/>
		<circle fill="none" stroke="#FFFFFF" stroke-width="0.4115" stroke-miterlimit="10" cx="42" cy="42.9" r="0.9"/>
		<path fill="#FFFFFF" d="M40.9,36.4c0,0.8-0.6,1.4-1.4,1.4c-0.8,0-1.4-0.6-1.4-1.4c0-0.8,0.6-1.4,1.4-1.4
			C40.3,35,40.9,35.6,40.9,36.4"/>
		<path fill="#FFFFFF" d="M44.5,37c0,0.8-0.6,1.4-1.4,1.4c-0.8,0-1.4-0.6-1.4-1.4c0-0.8,0.6-1.4,1.4-1.4
			C43.8,35.5,44.5,36.2,44.5,37"/>
		<path fill="#FFFFFF" d="M48,37.7c0,0.8-0.6,1.4-1.4,1.4c-0.8,0-1.4-0.6-1.4-1.4c0-0.8,0.6-1.4,1.4-1.4C47.3,36.2,48,36.9,48,37.7"
			/>
		<path fill="#FFFFFF" d="M43,45.4c0,0.5-0.4,0.9-0.9,0.9c-0.5,0-0.9-0.4-0.9-0.9c0-0.5,0.4-0.9,0.9-0.9C42.6,44.5,43,44.9,43,45.4"
			/>
		<circle fill="none" stroke="#FFFFFF" stroke-width="0.4115" stroke-miterlimit="10" cx="42" cy="45.4" r="0.9"/>
		<path fill="#FFFFFF" d="M43,48c0,0.5-0.4,0.9-0.9,0.9c-0.5,0-0.9-0.4-0.9-0.9c0-0.5,0.4-0.9,0.9-0.9C42.6,47.1,43,47.5,43,48"/>
		<circle fill="none" stroke="#FFFFFF" stroke-width="0.4115" stroke-miterlimit="10" cx="42" cy="48" r="0.9"/>
		<path fill="#FFFFFF" d="M43,50.5c0,0.5-0.4,0.9-0.9,0.9c-0.5,0-0.9-0.4-0.9-0.9c0-0.5,0.4-0.9,0.9-0.9C42.6,49.6,43,50,43,50.5"/>
		<circle fill="none" stroke="#FFFFFF" stroke-width="0.4115" stroke-miterlimit="10" cx="42" cy="50.5" r="0.9"/>
		<path fill="#FFFFFF" d="M43,53.1c0,0.5-0.4,0.9-0.9,0.9c-0.5,0-0.9-0.4-0.9-0.9c0-0.5,0.4-0.9,0.9-0.9C42.6,52.2,43,52.6,43,53.1"
			/>
		<circle fill="none" stroke="#FFFFFF" stroke-width="0.4115" stroke-miterlimit="10" cx="42" cy="53.1" r="0.9"/>
		<path fill="#FFFFFF" d="M43,55.6c0,0.5-0.4,0.9-0.9,0.9c-0.5,0-0.9-0.4-0.9-0.9c0-0.5,0.4-0.9,0.9-0.9C42.6,54.7,43,55.1,43,55.6"
			/>
		<circle fill="none" stroke="#FFFFFF" stroke-width="0.4115" stroke-miterlimit="10" cx="42" cy="55.6" r="0.9"/>
		<circle fill="none" stroke="#FFFFFF" stroke-width="0.4115" stroke-miterlimit="10" cx="42" cy="58.2" r="0.9"/>
		<circle fill="none" stroke="#FFFFFF" stroke-width="0.4115" stroke-miterlimit="10" cx="42" cy="60.7" r="0.9"/>
		<circle fill="none" stroke="#FFFFFF" stroke-width="0.4115" stroke-miterlimit="10" cx="42" cy="63.3" r="0.9"/>
		<circle fill="none" stroke="#FFFFFF" stroke-width="0.4115" stroke-miterlimit="10" cx="42" cy="65.8" r="0.9"/>
		<circle fill="none" stroke="#FFFFFF" stroke-width="0.4115" stroke-miterlimit="10" cx="42" cy="68.4" r="0.9"/>
		<circle fill="none" stroke="#FFFFFF" stroke-width="0.4115" stroke-miterlimit="10" cx="42" cy="70.9" r="0.9"/>
		<circle fill="none" stroke="#FFFFFF" stroke-width="0.4115" stroke-miterlimit="10" cx="42" cy="73.5" r="0.9"/>
		<circle fill="none" stroke="#FFFFFF" stroke-width="0.4115" stroke-miterlimit="10" cx="42" cy="76" r="0.9"/>
		<circle fill="none" stroke="#FFFFFF" stroke-width="0.4115" stroke-miterlimit="10" cx="42" cy="78.6" r="0.9"/>
		<circle fill="none" stroke="#FFFFFF" stroke-width="0.4115" stroke-miterlimit="10" cx="42" cy="81.1" r="0.9"/>
		<path fill="#FFFFFF" d="M46,41.7c0,0.5-0.4,0.9-0.9,0.9c-0.5,0-0.9-0.4-0.9-0.9c0-0.5,0.4-0.9,0.9-0.9C45.6,40.8,46,41.2,46,41.7"
			/>
		<circle fill="none" stroke="#FFFFFF" stroke-width="0.4115" stroke-miterlimit="10" cx="45.1" cy="41.7" r="0.9"/>
		<path fill="#FFFFFF" d="M46,44.3c0,0.5-0.4,0.9-0.9,0.9c-0.5,0-0.9-0.4-0.9-0.9c0-0.5,0.4-0.9,0.9-0.9C45.6,43.3,46,43.8,46,44.3"
			/>
		<circle fill="none" stroke="#FFFFFF" stroke-width="0.4115" stroke-miterlimit="10" cx="45.1" cy="44.3" r="0.9"/>
		<path fill="#FFFFFF" d="M46,46.8c0,0.5-0.4,0.9-0.9,0.9c-0.5,0-0.9-0.4-0.9-0.9c0-0.5,0.4-0.9,0.9-0.9C45.6,45.9,46,46.3,46,46.8"
			/>
		<circle fill="none" stroke="#FFFFFF" stroke-width="0.4115" stroke-miterlimit="10" cx="45.1" cy="46.8" r="0.9"/>
		<path fill="#FFFFFF" d="M46,49.4c0,0.5-0.4,0.9-0.9,0.9c-0.5,0-0.9-0.4-0.9-0.9c0-0.5,0.4-0.9,0.9-0.9C45.6,48.4,46,48.8,46,49.4"
			/>
		<circle fill="none" stroke="#FFFFFF" stroke-width="0.4115" stroke-miterlimit="10" cx="45.1" cy="49.4" r="0.9"/>
		<path fill="#FFFFFF" d="M46,51.9c0,0.5-0.4,0.9-0.9,0.9c-0.5,0-0.9-0.4-0.9-0.9c0-0.5,0.4-0.9,0.9-0.9C45.6,51,46,51.4,46,51.9"/>
		<circle fill="none" stroke="#FFFFFF" stroke-width="0.4115" stroke-miterlimit="10" cx="45.1" cy="51.9" r="0.9"/>
		<path fill="#FFFFFF" d="M46,54.5c0,0.5-0.4,0.9-0.9,0.9c-0.5,0-0.9-0.4-0.9-0.9c0-0.5,0.4-0.9,0.9-0.9C45.6,53.5,46,53.9,46,54.5"
			/>
		<circle fill="none" stroke="#FFFFFF" stroke-width="0.4115" stroke-miterlimit="10" cx="45.1" cy="54.5" r="0.9"/>
		<circle fill="none" stroke="#FFFFFF" stroke-width="0.4115" stroke-miterlimit="10" cx="45.1" cy="57" r="0.9"/>
		<circle fill="none" stroke="#FFFFFF" stroke-width="0.4115" stroke-miterlimit="10" cx="45.1" cy="59.6" r="0.9"/>
		<circle fill="none" stroke="#FFFFFF" stroke-width="0.4115" stroke-miterlimit="10" cx="45.1" cy="62.1" r="0.9"/>
		<circle fill="none" stroke="#FFFFFF" stroke-width="0.4115" stroke-miterlimit="10" cx="45.1" cy="64.7" r="0.9"/>
		<circle fill="none" stroke="#FFFFFF" stroke-width="0.4115" stroke-miterlimit="10" cx="45.1" cy="67.2" r="0.9"/>
		<circle fill="none" stroke="#FFFFFF" stroke-width="0.4115" stroke-miterlimit="10" cx="45.1" cy="69.7" r="0.9"/>
		<circle fill="none" stroke="#FFFFFF" stroke-width="0.4115" stroke-miterlimit="10" cx="45.1" cy="72.3" r="0.9"/>
		<circle fill="none" stroke="#FFFFFF" stroke-width="0.4115" stroke-miterlimit="10" cx="45.1" cy="74.8" r="0.9"/>
		<circle fill="none" stroke="#FFFFFF" stroke-width="0.4115" stroke-miterlimit="10" cx="45.1" cy="77.4" r="0.9"/>
		<circle fill="none" stroke="#FFFFFF" stroke-width="0.4115" stroke-miterlimit="10" cx="45.1" cy="79.9" r="0.9"/>
		
			<line fill="none" stroke="#FFFFFF" stroke-width="0.5807" stroke-linecap="round" stroke-linejoin="round" stroke-miterlimit="10" x1="35" y1="33" x2="49.9" y2="35.3"/>
		<polygon fill="#FFFFFF" points="46.4,33 39.4,31.7 39.4,26.3 46.4,27.4 		"/>
		
			<line fill="none" stroke="#FFFFFF" stroke-width="1.5241" stroke-linecap="round" stroke-linejoin="round" stroke-miterlimit="10" x1="35.3" y1="15.3" x2="55" y2="18.6"/>
		
			<line fill="none" stroke="#FFFFFF" stroke-width="1.5211" stroke-linecap="round" stroke-linejoin="round" stroke-miterlimit="10" x1="55" y1="20.2" x2="54.8" y2="88.3"/>
	</g>
</g>
</svg>
