<?xml version="1.0" encoding="utf-8"?>
<!-- Generator: Adobe Illustrator 18.0.0, SVG Export Plug-In . SVG Version: 6.00 Build 0)  -->
<!DOCTYPE svg PUBLIC "-//W3C//DTD SVG 1.1//EN" "http://www.w3.org/Graphics/SVG/1.1/DTD/svg11.dtd">
<svg version="1.1" id="Ebene_1" xmlns="http://www.w3.org/2000/svg" xmlns:xlink="http://www.w3.org/1999/xlink" x="0px" y="0px"
	 width="100px" height="100px" viewBox="0 0 100 100" enable-background="new 0 0 100 100" xml:space="preserve">
<g>
	<rect x="1.6" y="1.6" fill="#95BFE7" width="96.9" height="96.9"/>
	<path fill="#FFFFFF" d="M3.1,3.1h93.7v93.7H3.1V3.1z M0,0v1.6v96.9v1.6h1.6h96.9h1.6V0H0z"/>
	<rect x="48.5" y="47.4" fill="#FFFFFF" width="2.3" height="14.7"/>
	<polygon fill="#FFFFFF" points="46.4,46.1 46.4,46 46.4,45.3 46.4,44.1 47.6,44.1 51.7,44.1 52.9,44.1 52.9,45.3 52.9,46 
		52.9,46.4 52.8,46.5 52.8,47 52.7,47 52.7,47.4 51.7,47.4 51.4,47.5 51.4,48.3 50.3,48.3 49.1,48.3 47.9,48.3 47.9,47.5 47.7,47.4 
		47.2,47.4 47,47.2 46.4,47 46.4,46.2 	"/>
	<polygon fill="#FFFFFF" points="47.8,39.2 40.9,39.2 40.1,39.2 40.1,38.5 40.1,34.8 40.1,34.1 40.9,34.1 47.8,34.1 47.8,35.6 
		41.6,35.6 41.6,37.7 47.8,37.7 	"/>
	<polygon fill="#FFFFFF" points="51.5,37.7 57.7,37.7 57.7,35.6 51.5,35.6 51.5,34.1 58.5,34.1 59.2,34.1 59.2,34.8 59.2,38.5 
		59.2,39.2 58.5,39.2 51.5,39.2 	"/>
	<polygon fill="#FFFFFF" points="50,61 50.8,61 51.9,61 51.9,62.1 51.9,65.4 51.9,66.6 50.8,66.6 48.6,66.6 47.5,66.6 47.5,65.4 
		47.5,62.1 47.5,61 48.6,61 	"/>
	<path fill="#FFFFFF" d="M48.8,66.6l-0.3,0.1l-0.2,0.1l-0.3,0.1l-0.3,0.1L47.4,67l-0.2,0.1l-0.3,0.2v0l-0.2,0.2l-0.3,0.2l-0.2,0.1
		L45.9,68l-0.2,0.2l-0.2,0.3l-0.2,0.2l-0.2,0.2h0L45,69.2l-0.2,0.3l-0.1,0.3l0,0l-0.1,0.2h0l-0.1,0.3l-0.1,0.3l-0.1,0.2l-0.1,0.3
		l0,0.3l0,0.4l0,0.3h0v11h0l0,0.3l0,0.4l0,0.2l0.1,0.3v0l0.1,0.2h0l0.1,0.3l0.1,0.3l0.1,0.3h0l0.1,0.2h0l0.2,0.3l0,0l0.1,0.2
		l0.2,0.3l0.2,0.2l0.2,0.2l0,0l0.2,0.2l0.2,0.2l0.2,0.2l0.3,0.2l0.2,0.1l0.3,0.2l0.3,0.1l0.3,0.1l0.3,0.1l0.3,0.1l0.3,0.1v0l0.3,0.1
		l0.2,0l0.4,0v0l0.3,0l0.3,0v0l0.4,0l0.2,0l0.3-0.1l0.3-0.1l0.2-0.1h0l0.3-0.1L52,88l0.3-0.1l0.3-0.2l0.2-0.1l0.3-0.2l0.2-0.2
		l0.3-0.2l0.2-0.2l0.2-0.3v0l0.2-0.2l0.2-0.2l0.1-0.2l0.1-0.3l0.2-0.3l0.1-0.2l0.1-0.3l0.1-0.3h0l0.1-0.2v0l0.1-0.3l0-0.3l0-0.3
		l0-0.3h0V72h0l0-0.3l0-0.4l0-0.3l0-0.3l-0.1-0.3l0,0l-0.1-0.3l-0.1-0.3l0,0l-0.1-0.2v0l-0.1-0.3l-0.1-0.2l-0.2-0.3h0L54,68.7
		l-0.2-0.3l-0.2-0.2L53.4,68l-0.3-0.2l-0.2-0.2l-0.2-0.2l-0.2-0.1v0l-0.3-0.2L52,67l-0.3-0.1v0l-0.3-0.1l-0.3-0.1l-0.3-0.1l-0.3-0.1
		l0.4-2.2l0.4,0.1l0.1,0l0.4,0.1l0.1,0l0.3,0.1l0.1,0l0.3,0.1l0,0l0.3,0.1l0.1,0l0.3,0.2l0.1,0l0.3,0.2l0.1,0l0.3,0.2l0,0l0.3,0.2
		l0.1,0l0.3,0.2l0,0l0.3,0.2l0,0l0.3,0.3l0,0l0.2,0.3l0,0.1l0.2,0.3l0,0l0.2,0.3l0,0.1l0.2,0.3l0,0.1l0.2,0.3l0,0.1l0.2,0.3l0,0.1
		l0.1,0.3l0,0l0.1,0.3l0,0.1l0.1,0.3l0,0l0.1,0.3l0,0.1l0.1,0.4l0,0l0.1,0.4l0,0.1l0,0.4v0.1l0,0.4l0,0v11l0,0l0,0.4v0.1l0,0.4l0,0
		l0,0.4l0,0.1l-0.1,0.4l0,0.1l-0.1,0.3l0,0L57,85.4l0,0.1l-0.1,0.3l0,0l-0.1,0.3l0,0.1l-0.2,0.3l0,0L56.3,87l0,0.1l-0.2,0.3l0,0.1
		l-0.2,0.3l0,0L55.6,88l0,0.1l-0.2,0.3l-0.1,0.1L55,88.6l0,0l-0.3,0.2l0,0l-0.3,0.2l-0.1,0L54,89.4l0,0l-0.3,0.2l0,0l-0.3,0.2
		l-0.1,0L52.9,90l-0.1,0l-0.3,0.1l0,0l-0.3,0.1l-0.1,0l-0.3,0.1l-0.1,0l-0.3,0.1l0,0l-0.4,0.1l-0.1,0l-0.4,0l-0.1,0l-0.4,0H50
		l-0.4,0h0l-0.4,0h-0.1l-0.4,0l-0.1,0l-0.4,0l-0.1,0L48,90.6l0,0l-0.3-0.1l-0.1,0l-0.3-0.1l-0.1,0l-0.3-0.1l0,0l-0.3-0.1l-0.1,0
		l-0.3-0.2l-0.1,0l-0.3-0.2l0,0l-0.3-0.2l0,0L45,89.2l-0.1,0l-0.3-0.2l0,0l-0.3-0.2l-0.1,0l-0.3-0.3l0,0l-0.2-0.3L43.7,88l-0.2-0.3
		l0,0l-0.2-0.3l0-0.1L43,87l0,0l-0.2-0.3l0-0.1l-0.2-0.3l0,0l-0.1-0.3l0-0.1l-0.1-0.3l0-0.1l-0.1-0.3l0-0.1l-0.1-0.3l0,0L42,84.3
		l0-0.1l0-0.4l0-0.1l0-0.4v-0.1l0-0.4l0,0V72l0,0l0-0.4v-0.1l0-0.4l0-0.1l0-0.4l0-0.1l0.1-0.4l0-0.1l0.1-0.3l0-0.1l0.1-0.3l0-0.1
		l0.1-0.3l0-0.1l0.1-0.3l0-0.1l0.2-0.3l0-0.1L43,68l0-0.1l0.2-0.3l0,0l0.2-0.3l0-0.1l0.2-0.3l0-0.1l0.2-0.3l0,0l0.3-0.3l0,0l0.3-0.2
		l0.1,0l0.3-0.2l0,0l0.3-0.2l0.1,0l0.3-0.2l0,0l0.3-0.2l0.1,0l0.3-0.2l0.1,0l0.3-0.1l0,0l0.3-0.1l0.1,0l0.3-0.1l0.1,0l0.3-0.1l0.1,0
		l0.4-0.1L48.8,66.6z M53.8,68.4L53.8,68.4"/>
	<polygon fill="#FFFFFF" points="39.7,34.8 40.5,11.2 40.5,11.2 40.5,11.1 40.5,10.8 40.6,10.6 40.6,10.6 40.7,10.3 40.8,10.1 
		40.8,10.1 40.9,9.7 41.3,9.4 41.4,9.3 41.4,9.3 41.5,9.2 41.7,9.2 41.8,9.1 42,9 42.1,8.9 42.2,8.9 42.3,8.8 42.6,8.7 42.8,8.7 
		42.9,8.7 43,8.7 43.1,8.7 56.2,8.7 56.4,8.7 56.5,8.7 56.6,8.7 56.7,8.8 56.8,8.8 56.9,8.8 56.9,8.8 57,8.9 57.2,8.9 57.4,9 
		57.5,9.1 57.5,9.1 57.7,9.2 57.8,9.2 57.9,9.3 58,9.4 58,9.5 58.1,9.6 58.2,9.7 58.3,9.8 58.3,9.9 58.4,9.9 58.4,10 58.5,10 
		58.5,10.1 58.7,10.3 58.7,10.6 58.7,10.6 58.8,10.8 58.8,11.1 58.8,11.2 58.8,11.2 59.6,34.8 57.3,34.9 56.6,11.4 56.5,11.4 
		56.5,11.2 56.5,11.2 56.4,11.1 56.4,11 56.4,11 56.2,11 56.2,11 56.2,11 43.2,11 43.1,11 42.9,11 42.8,11.2 42.8,11.4 42.8,11.4 
		42,34.9 	"/>
	<polygon fill="#FFFFFF" points="58.5,34.7 61.2,34.7 61.6,34.7 61.6,35.1 61.6,38.1 61.6,38.4 61.2,38.4 58.5,38.4 58.5,37.7 
		60.9,37.7 60.9,35.5 58.5,35.5 	"/>
	<polygon fill="#FFFFFF" points="40.9,35.5 38.5,35.5 38.5,37.7 40.9,37.7 40.9,38.4 38.1,38.4 37.7,38.4 37.7,38.1 37.7,35.1 
		37.7,34.7 38.1,34.7 40.9,34.7 	"/>
	<polygon fill="#FFFFFF" points="47.8,42.9 34.3,42.9 34.3,44.2 47.8,44.2 47.8,45.9 33.5,45.9 32.6,45.9 32.6,45 32.6,42.1 
		32.6,41.2 33.5,41.2 47.8,41.2 	"/>
	<polygon fill="#FFFFFF" points="51.5,44.2 65,44.2 65,42.9 51.5,42.9 51.5,41.3 65.8,41.3 66.7,41.3 66.7,42.1 66.7,45 66.7,45.9 
		65.8,45.9 51.5,45.9 	"/>
	<path fill="#FFFFFF" d="M47.1,45.3V13.6v-0.7h0.7h3.7h0.7v0.7v31.7V46h-0.7h-3.7h-0.7V45.3z M48.6,44.5h2.2V14.3h-2.2V44.5z"/>
</g>
</svg>
