<?xml version="1.0" encoding="utf-8"?>
<!-- Generator: Adobe Illustrator 21.1.0, SVG Export Plug-In . SVG Version: 6.00 Build 0)  -->
<svg version="1.1" id="Ebene_1" xmlns="http://www.w3.org/2000/svg" xmlns:xlink="http://www.w3.org/1999/xlink" x="0px" y="0px"
	 width="100px" height="100px" viewBox="0 0 100 100" enable-background="new 0 0 100 100" xml:space="preserve">
<g>
	<rect x="1.2" y="3.1" fill-rule="evenodd" clip-rule="evenodd" fill="#8CA2C2" width="96.9" height="96.3"/>
	<path fill="#FFFFFF" d="M1.5,0h97h1.5v1.5v96.9v1.5h-1.5h-97H0v-1.5V1.5V0H1.5z M97,3.1H3.1V97H97V3.1z"/>
	<rect x="30.8" y="13.7" fill="none" stroke="#FFFFFF" stroke-width="0.6335" width="26" height="72.4"/>
	<rect x="34" y="19" fill="#FFFFFF" width="1.6" height="67.1"/>
	<rect x="51.3" y="6.2" fill="#FFFFFF" width="6.5" height="87.2"/>
	<rect x="51.3" y="6.2" fill="none" stroke="#FFFFFF" stroke-width="0.8386" width="6.5" height="87.2"/>
	<rect x="57.8" y="15.5" fill="#FFFFFF" width="9.9" height="3.1"/>
	<rect x="67.6" y="12.2" fill="#FFFFFF" width="3.1" height="9.8"/>
	<rect x="67.6" y="77.1" fill="#FFFFFF" width="3.1" height="9.8"/>
	<rect x="57.8" y="80.4" fill="#FFFFFF" width="9.9" height="3.1"/>
	<g>
		<path fill="#FFFFFF" d="M54.5,28.6h-7.9l1.1-2.6l-0.3-3.2l-1-1.4h8.2c0,0,0.8,1.2,0.8,3.6C55.3,27.4,54.5,28.6,54.5,28.6"/>
		<polygon fill="none" stroke="#FFFFFF" stroke-width="0.7641" stroke-miterlimit="10" points="39.4,23 41,21.1 41.2,20.9 
			45.2,20.9 47.5,22.6 47.5,27 46.1,29.8 41.7,29.8 39.4,28.1 		"/>
		<polyline fill="none" stroke="#FFFFFF" stroke-width="0.7641" stroke-miterlimit="10" points="41.2,20.9 43.4,22.5 43.4,27.2 
			41.5,29.7 		"/>
		<polyline fill="none" stroke="#FFFFFF" stroke-width="0.7641" stroke-miterlimit="10" points="43.4,27.2 47.4,27.2 47.5,22.6 
			43.7,22.6 		"/>
		<path fill="#FFFFFF" d="M41.8,27.2H34v-3.8h7.8c0,0,0.5,1,0.5,1.9C42.3,26.3,41.8,27.2,41.8,27.2"/>
		<path fill="#FFFFFF" d="M54.5,53.6h-7.9l1.1-2.6l-0.3-3.2l-1-1.4h8.2c0,0,0.8,1.2,0.8,3.6C55.3,52.4,54.5,53.6,54.5,53.6"/>
		<polygon fill="none" stroke="#FFFFFF" stroke-width="0.7641" stroke-miterlimit="10" points="39.4,48 41,46.1 41.2,45.9 
			45.2,45.9 47.5,47.6 47.5,52 46.1,54.8 41.7,54.8 39.4,53.1 		"/>
		<polyline fill="none" stroke="#FFFFFF" stroke-width="0.7641" stroke-miterlimit="10" points="41.2,45.9 43.4,47.5 43.4,52.2 
			41.5,54.7 		"/>
		<polyline fill="none" stroke="#FFFFFF" stroke-width="0.7641" stroke-miterlimit="10" points="43.4,52.2 47.4,52.2 47.5,47.6 
			43.7,47.6 		"/>
		<path fill="#FFFFFF" d="M41.8,52.2H34v-3.8h7.8c0,0,0.5,1,0.5,1.9C42.3,51.3,41.8,52.2,41.8,52.2"/>
		<path fill="#FFFFFF" d="M54.5,78.1h-7.9l1.1-2.6l-0.3-3.2l-1-1.4h8.2c0,0,0.8,1.2,0.8,3.6C55.3,76.9,54.5,78.1,54.5,78.1"/>
		<polygon fill="none" stroke="#FFFFFF" stroke-width="0.7641" stroke-miterlimit="10" points="39.4,72.5 41,70.6 41.2,70.4 
			45.2,70.4 47.5,72.1 47.5,76.5 46.1,79.3 41.7,79.3 39.4,77.6 		"/>
		<polyline fill="none" stroke="#FFFFFF" stroke-width="0.7641" stroke-miterlimit="10" points="41.2,70.4 43.4,72 43.4,76.7 
			41.5,79.2 		"/>
		<polyline fill="none" stroke="#FFFFFF" stroke-width="0.7641" stroke-miterlimit="10" points="43.4,76.7 47.4,76.7 47.5,72.1 
			43.7,72.1 		"/>
		<path fill="#FFFFFF" d="M41.8,76.7H34V73h7.8c0,0,0.5,1,0.5,1.9C42.3,75.8,41.8,76.7,41.8,76.7"/>
		<path fill="#FFFFFF" d="M54.5,42h-9.3l-1.9-2v-3.5l1.6-2.6l1.8,0.6l7.8,0.2c0,0,0.7,1.8,0.7,4.1C55.1,41.1,54.5,42,54.5,42"/>
		<polygon fill="none" stroke="#FFFFFF" stroke-width="0.7641" stroke-miterlimit="10" points="47.3,40.1 45.6,42.2 41.5,42.2 
			39.3,40.5 39.3,35.6 41.3,33.4 44.9,33.4 46.1,34.5 47.3,35.5 		"/>
		<polyline fill="none" stroke="#FFFFFF" stroke-width="0.7641" stroke-miterlimit="10" points="45.2,42 43.1,40.2 43.3,36 
			45.2,33.4 		"/>
		<polyline fill="none" stroke="#FFFFFF" stroke-width="0.7641" stroke-miterlimit="10" points="43.1,36.2 39.3,36.1 39.3,40.2 
			43.1,40.2 		"/>
		<rect x="34" y="36.3" fill="#FFFFFF" width="5.3" height="3.8"/>
		<path fill="#FFFFFF" d="M54.5,66.5h-9.3l-1.9-2V61l1.6-2.6l1.8,0.6l7.8,0.2c0,0,0.7,1.8,0.7,4.1C55.1,65.6,54.5,66.5,54.5,66.5"/>
		<polygon fill="none" stroke="#FFFFFF" stroke-width="0.7641" stroke-miterlimit="10" points="47.3,64.6 45.6,66.8 41.5,66.8 
			39.3,65.1 39.3,60.1 41.3,58 44.9,58 46.1,59 47.3,60.1 		"/>
		<polyline fill="none" stroke="#FFFFFF" stroke-width="0.7641" stroke-miterlimit="10" points="45.2,66.5 43.1,64.7 43.3,60.5 
			45.2,58 		"/>
		<polyline fill="none" stroke="#FFFFFF" stroke-width="0.7641" stroke-miterlimit="10" points="43.1,60.7 39.3,60.6 39.3,64.7 
			43.1,64.7 		"/>
		<rect x="34" y="60.8" fill="#FFFFFF" width="5.3" height="3.8"/>
	</g>
</g>
</svg>
