<?xml version="1.0" encoding="utf-8"?>
<!-- Generator: Adobe Illustrator 18.0.0, SVG Export Plug-In . SVG Version: 6.00 Build 0)  -->
<!DOCTYPE svg PUBLIC "-//W3C//DTD SVG 1.1//EN" "http://www.w3.org/Graphics/SVG/1.1/DTD/svg11.dtd">
<svg version="1.1" id="Ebene_1" xmlns="http://www.w3.org/2000/svg" xmlns:xlink="http://www.w3.org/1999/xlink" x="0px" y="0px"
	 width="100px" height="100px" viewBox="0 0 100 100" enable-background="new 0 0 100 100" xml:space="preserve">
<rect x="1.6" y="1.6" fill="#508BC9" width="96.9" height="96.9"/>
<path fill="#FFFFFF" d="M3.1,3.1h93.7v93.7H3.1V3.1z M0,0v1.6v96.9v1.6h1.6h96.9h1.6V0H0z"/>
<g>
	<defs>
		<rect id="SVGID_1_" width="100" height="100"/>
	</defs>
	<clipPath id="SVGID_2_">
		<use xlink:href="#SVGID_1_"  overflow="visible"/>
	</clipPath>
	<path clip-path="url(#SVGID_2_)" fill="#FFFFFF" d="M67.7,88.5l-21.7,0V87v-1.4l21.7,0c2,0,2.5-0.5,2.8-1c0.3-0.5,0.4-1.7,0.4-3
		l0-63.4c0-0.1,0-0.2,0-0.2c0-2.2-0.4-3-0.7-3.2c-0.2-0.2-1.1-0.5-2.8-0.4h0h-0.1h0l-13.3,0l-21.2,0c-1.9,0-2.7,0.3-3,0.7
		c-0.3,0.3-0.7,1.3-0.6,3.3v63.4c0,1.8,0.2,2.8,0.5,3.1c0.2,0.3,1.1,0.8,3.4,0.8h13V87v1.4H33c-2.5,0-4.3-0.4-5.6-1.8
		c-1.1-1.4-1.2-3.1-1.2-4.9V18.4c0-2.2,0.2-3.9,1.4-5.2c1.2-1.3,3-1.6,5.1-1.6l21.2,0l13.2,0c0,0,0.1,0,0.1,0h0c1.8,0,3.4,0,4.8,1.1
		c1.4,1.2,1.6,2.9,1.7,5.4c0,0,0,0,0,0.1v63.5c0,1.4,0,2.9-0.8,4.4c-0.8,1.5-2.6,2.4-5.1,2.4H67.7"/>
</g>
<path fill="#FFFFFF" d="M33.5,72.4h32.9V27.2H33.5V72.4z M30.8,75.1V25.8v-1.4h38.3v50.7H30.8z"/>
<path fill="#FFFFFF" d="M36.5,64.8h27.2V49.5H36.5V64.8z M35,66.4V48.7v-0.8h30.1v18.5H35z"/>
<g>
	<defs>
		<rect id="SVGID_3_" width="100" height="100"/>
	</defs>
	<clipPath id="SVGID_4_">
		<use xlink:href="#SVGID_3_"  overflow="visible"/>
	</clipPath>
	<path clip-path="url(#SVGID_4_)" fill="#FFFFFF" d="M59.7,54.9L59.7,54.9c0.7,0,1.3-0.6,1.3-1.3v0c0-0.7-0.6-1.3-1.3-1.3h0h0
		c-0.7,0-1.3,0.6-1.3,1.3h-0.6l0.6-0.1l-0.8,0.1l0.8,0C58.4,54.3,59,54.9,59.7,54.9 M59.7,56.4c-1.5,0-2.8-1.2-2.8-2.7
		c0,0,0-0.1,0-0.1c0-1.5,1.2-2.8,2.8-2.8c0,0,0,0,0.1,0c1.6,0,2.8,1.3,2.8,2.8v0C62.6,55.1,61.3,56.4,59.7,56.4L59.7,56.4z"/>
	<path clip-path="url(#SVGID_4_)" fill="#FFFFFF" d="M59.8,62.6L59.8,62.6c0.7,0,1.3-0.6,1.3-1.3v0c0-0.7-0.6-1.3-1.3-1.3l0,0h-0.1
		c-0.7,0-1.3,0.6-1.3,1.3h-0.6l0.6-0.1l-0.7,0.1l0.8,0C58.5,62,59.1,62.6,59.8,62.6 M59.8,64.1c-1.6,0-2.8-1.2-2.8-2.8v0
		c0-1.5,1.2-2.8,2.8-2.8c0,0,0,0,0.1,0c1.6,0,2.8,1.2,2.8,2.8v0C62.6,62.8,61.3,64.1,59.8,64.1L59.8,64.1z"/>
	<path clip-path="url(#SVGID_4_)" fill="#FFFFFF" d="M59.7,35.4L59.7,35.4c0.7,0,1.3-0.6,1.3-1.3v0c0-0.7-0.6-1.3-1.3-1.3h0
		c-0.7,0-1.3,0.6-1.3,1.3h-0.6l-0.2,0l0.8,0C58.4,34.8,59,35.4,59.7,35.4 M59.7,36.9c-1.5,0-2.8-1.2-2.8-2.8c0,0,0,0,0-0.1
		c0-1.6,1.3-2.8,2.8-2.8v0c0,0,0,0,0,0c1.6,0,2.8,1.2,2.8,2.8v0C62.6,35.6,61.3,36.9,59.7,36.9L59.7,36.9z"/>
	<path clip-path="url(#SVGID_4_)" fill="#FFFFFF" d="M59.8,43.1c0.7,0,1.3-0.6,1.3-1.3v0c0-0.7-0.6-1.3-1.3-1.3v-0.6l0,0.6
		c-0.7,0-1.3,0.6-1.3,1.3h-0.6l-0.1,0l0.8,0C58.5,42.5,59,43.1,59.8,43.1C59.8,43.1,59.8,43.1,59.8,43.1 M59.8,44.6
		c-1.5,0-2.8-1.2-2.8-2.7c0,0,0,0,0-0.1c0-1.6,1.2-2.8,2.7-2.8c0,0,0,0,0.1,0c1.5,0,2.8,1.2,2.8,2.8v0
		C62.6,43.3,61.3,44.6,59.8,44.6L59.8,44.6z"/>
	<path clip-path="url(#SVGID_4_)" fill="#FFFFFF" d="M46.7,13.7v3.5c0.1,2.3,1,3.9,3.3,4c2.4,0,3.2-1.5,3.3-4v-3.5L46.7,13.7z
		 M50,22.8c-3.3,0-4.8-2.8-4.8-5.5v-5.1h9.6v5.1c0,1.4-0.3,2.8-1.1,3.8C52.9,22.1,51.7,22.8,50,22.8L50,22.8z"/>
	<path clip-path="url(#SVGID_4_)" fill="#FFFFFF" d="M46.7,86.3h6.6v-3.7c-0.1-2.3-1-3.9-3.3-4c-2.4,0-3.2,1.5-3.3,4V86.3z
		 M45.2,87.8v-5.3c0-1.4,0.3-2.8,1.1-3.8c0.8-1,2.1-1.7,3.7-1.7c3.3,0,4.8,2.8,4.8,5.5v5.3H45.2z"/>
	<path clip-path="url(#SVGID_4_)" fill="#FFFFFF" d="M48.6,18.1c0,0.9,0.7,1.5,1.5,1.5c0.9,0,1.5-0.7,1.6-1.5c0-0.9-0.7-1.5-1.6-1.5
		C49.2,16.6,48.6,17.3,48.6,18.1 M47.5,18.1c0-1.4,1.2-2.6,2.6-2.6c1.4,0,2.6,1.2,2.6,2.6c0,1.4-1.2,2.6-2.6,2.6
		C48.7,20.7,47.5,19.6,47.5,18.1"/>
	<path clip-path="url(#SVGID_4_)" fill="#FFFFFF" d="M48.6,81.8c0,0.9,0.7,1.6,1.5,1.6c0.9,0,1.6-0.7,1.6-1.6c0-0.9-0.7-1.5-1.6-1.5
		C49.2,80.3,48.6,81,48.6,81.8 M47.5,81.8c0-1.4,1.2-2.6,2.6-2.6c1.4,0,2.6,1.2,2.6,2.6c0,1.4-1.2,2.6-2.6,2.6
		C48.7,84.4,47.5,83.2,47.5,81.8"/>
</g>
</svg>
