<?xml version="1.0" encoding="utf-8"?>
<!-- Generator: Adobe Illustrator 18.0.0, SVG Export Plug-In . SVG Version: 6.00 Build 0)  -->
<!DOCTYPE svg PUBLIC "-//W3C//DTD SVG 1.1//EN" "http://www.w3.org/Graphics/SVG/1.1/DTD/svg11.dtd">
<svg version="1.1" id="Ebene_1" xmlns="http://www.w3.org/2000/svg" xmlns:xlink="http://www.w3.org/1999/xlink" x="0px" y="0px"
	 width="100px" height="100px" viewBox="0 0 100 100" enable-background="new 0 0 100 100" xml:space="preserve">
<rect x="1.6" y="1.6" fill="#758393" width="96.9" height="96.9"/>
<path fill="#FFFFFF" d="M3.1,3.1h93.8v93.8H3.1V3.1z M0,0v1.5v96.9v1.6h1.6h96.9h1.5V0H0z"/>
<g>
	<defs>
		<rect id="SVGID_1_" width="100" height="100"/>
	</defs>
	<clipPath id="SVGID_2_">
		<use xlink:href="#SVGID_1_"  overflow="visible"/>
	</clipPath>
	<path clip-path="url(#SVGID_2_)" fill="#FFFFFF" d="M44.6,89.2c-0.3-0.7,0.1-1.5,0.8-1.8l8.8-3.1c0.7-0.3,1.5,0.1,1.8,0.8
		c0.3,0.7-0.1,1.5-0.8,1.8l-8.8,3.1c-0.2,0.1-0.3,0.1-0.5,0.1C45.3,90.2,44.8,89.8,44.6,89.2"/>
	<path clip-path="url(#SVGID_2_)" fill="#FFFFFF" d="M54.3,87l-8.8-2.7c-0.7-0.2-1.1-1-0.9-1.7c0.2-0.7,1-1.1,1.7-0.9l8.8,2.7
		c0.7,0.2,1.1,1,0.9,1.7c-0.2,0.6-0.7,1-1.3,1C54.6,87,54.4,87,54.3,87"/>
	<path clip-path="url(#SVGID_2_)" fill="#FFFFFF" d="M54.5,81.2l-9.2-3.3c-0.7-0.3-1.1-1-0.8-1.8c0.3-0.7,1-1.1,1.8-0.8l9.2,3.3
		c0.7,0.3,1.1,1,0.8,1.8c-0.2,0.6-0.7,0.9-1.3,0.9C54.8,81.3,54.6,81.2,54.5,81.2"/>
	<path clip-path="url(#SVGID_2_)" fill="#FFFFFF" d="M44.6,83.4c-0.2-0.7,0.1-1.5,0.9-1.7l9.1-3.1c0.7-0.2,1.5,0.1,1.7,0.9
		c0.2,0.7-0.1,1.5-0.9,1.7l-9.1,3.1c-0.1,0-0.3,0.1-0.4,0.1C45.3,84.4,44.8,84,44.6,83.4"/>
</g>
<path fill="#FFFFFF" d="M14.6,40.1v-1.3 M15.9,50.1h9.4l16.7,11.1l15.9,0l16.7-11.1h9.5l0-10h-9.4l-10-5.3H35L25.3,40l-9.4,0
	L15.9,50.1z M41.3,63.8L24.6,52.7H13.3l0-13.9l0-1.3l11.3,0l9.8-5.3h31l10,5.3h11.3l0,15.2H75.4L58.7,63.8L41.3,63.8z"/>
<path fill="#FFFFFF" d="M54.7,32.2l0-19.7h-7.9v19.7H54.7z M45.6,34.8v-1.3h1.3h-1.3V34.8h-1.3V9.8h13.1l-0.1,24.9H45.6z"/>
<polygon fill="#758393" points="44.7,17.2 44.7,20.2 57.3,20.2 57.3,17.2 "/>
<path fill="#FFFFFF" d="M44.7,17.9v-0.7 M45.3,19.5h11.2l0-1.6H45.3V19.5z M44,20.9v-3.7v-0.7h14l0,4.4H44z"/>
<rect x="48.1" y="17.2" fill="#FFFFFF" width="1.4" height="3"/>
<rect x="52.5" y="17.2" fill="#FFFFFF" width="1.4" height="3"/>
<polygon fill="#758393" points="31.7,46.7 31.7,49.7 67.8,49.7 67.8,46.7 "/>
<path fill="#FFFFFF" d="M31.7,48v-1.3 M33,48.4h33.5V48H33V48.4z M30.4,51v-4.3v-1.3h38.7l0,5.6H30.4z"/>
<polygon fill="#758393" points="17.7,38.3 17.7,35.2 22.2,35.2 22.1,38.3 "/>
<path fill="#FFFFFF" d="M18.4,37.6l3,0l0-1.6h-3V37.6z M17,39v-4.4h5.8l0,4.4l-5.1,0v-0.7h0.7h-0.7V39H17z"/>
<rect x="17.7" y="51.8" fill="#758393" width="4.4" height="3"/>
<path fill="#FFFFFF" d="M17.7,52.5v-0.7 M18.4,54.1h3.1v-1.6l-3.1,0L18.4,54.1z M17,55.5v-3.7v-0.7l5.8,0v4.4H17z"/>
<g>
	<defs>
		<rect id="SVGID_3_" width="100" height="100"/>
	</defs>
	<clipPath id="SVGID_4_">
		<use xlink:href="#SVGID_3_"  overflow="visible"/>
	</clipPath>
	<path clip-path="url(#SVGID_4_)" fill="#FFFFFF" d="M45.6,63.8v-1.3 M46.9,76.1l7.7-2.4l0,0c0,0,0.1,0,0.1-0.3c0-0.3,0-1.7,0-3.4
		c0-2.1,0-4.6,0-6.1h-7.9V76.1z M44.8,78.9c-0.3-0.2-0.5-0.6-0.5-1V62.5c0-0.3,0.1-0.7,0.4-0.9c0.2-0.2,0.6-0.4,0.9-0.4H56
		c0.7,0,1.3,0.6,1.3,1.3c0,0,0,4.2,0,7.4c0,1.7,0,3,0,3.5c-0.1,1.9-1.7,2.6-1.9,2.6l-9.5,3c-0.1,0-0.3,0.1-0.4,0.1
		C45.3,79.1,45,79,44.8,78.9"/>
</g>
<polygon fill="#758393" points="44.7,68.7 44.7,71.7 57.3,71.7 57.3,68.7 "/>
<path fill="#FFFFFF" d="M44.7,69.4v-0.7 M45.3,71h11.2l0-1.6H45.3V71z M44,68.7V68h14l0,4.4l-14,0V68.7z"/>
<rect x="48.1" y="68.7" fill="#FFFFFF" width="1.4" height="3"/>
<rect x="52.5" y="68.7" fill="#FFFFFF" width="1.4" height="3"/>
<polygon fill="#758393" points="82.3,38.3 82.3,35.2 77.8,35.2 77.9,38.3 "/>
<path fill="#FFFFFF" d="M78.5,37.6l3,0v-1.6h-3L78.5,37.6z M82.3,38.3v-0.7 M77.2,39l0-4.4H83v3.7V39L77.2,39z"/>
<rect x="77.9" y="51.8" fill="#758393" width="4.4" height="3"/>
<path fill="#FFFFFF" d="M78.5,54.1h3.1v-1.6h-3.1V54.1z M77.2,55.5v-4.4l5.1,0v0.7v-0.7H83l0,4.4H77.2z"/>
<polygon fill="#FFFFFF" points="71.8,44.9 62.3,39.6 37.7,39.6 28.2,44.9 14.6,44.9 14.6,42.4 27.5,42.4 37,37 63,37 72.5,42.4 
	85.4,42.4 85.4,44.9 "/>
</svg>
