<?xml version="1.0" encoding="utf-8"?>
<!-- Generator: Adobe Illustrator 18.0.0, SVG Export Plug-In . SVG Version: 6.00 Build 0)  -->
<!DOCTYPE svg PUBLIC "-//W3C//DTD SVG 1.1//EN" "http://www.w3.org/Graphics/SVG/1.1/DTD/svg11.dtd">
<svg version="1.1" id="Ebene_1" xmlns="http://www.w3.org/2000/svg" xmlns:xlink="http://www.w3.org/1999/xlink" x="0px" y="0px"
	 width="100px" height="100px" viewBox="0 0 100 100" enable-background="new 0 0 100 100" xml:space="preserve">
<rect x="1.5" y="1.5" fill="#828F85" width="97" height="97"/>
<path fill="#FFFFFF" d="M3,3H97V97H3V3z M0,0v1.5v97v1.5h1.5h97h1.5V0H0z"/>
<g>
	<defs>
		<rect id="SVGID_1_" width="100" height="100"/>
	</defs>
	<clipPath id="SVGID_2_">
		<use xlink:href="#SVGID_1_"  overflow="visible"/>
	</clipPath>
	<path clip-path="url(#SVGID_2_)" fill="#FFFFFF" d="M49.9,74.3c2.6,0,4.1-0.9,4.6-1.2c0.2-0.1,0.2-0.1,0.2-0.2
		c0.2-0.2,4.3-3.9,13.6-5.3c2.2-0.3,3.9-0.5,5.3-0.5c1.6,0,2.8,0.2,3.7,0.4V53c-1.6,0.7-3.7,1.7-5,2.3c-0.6,0.3-1.3,0.5-1.9,0.5
		c-1.4-0.1-2.2-1.4-2.7-2H31.1c-0.7,1-1.8,2.2-2.7,2.1c-1.2,0-2-0.5-2.4-0.7l-3.3-1.7v13.6c1.3-0.6,2.5-0.8,3.5-0.8
		c1.4,0,2.4,0.5,3,0.9H41l0.2,1.2c0.4,2.7,2.7,4.3,3.8,4.9c0.3,0.2,0.5,0.2,0.5,0.2C47.2,74.1,48.7,74.3,49.9,74.3 M49.9,77.1
		c-1.5,0-3.3-0.2-5.4-0.9c-0.1-0.1-4.4-1.6-5.9-6.2H28l-0.4-0.5h0l0,0c0,0-0.1-0.1-0.2-0.1c-0.2-0.1-0.6-0.3-1.2-0.3
		c-0.8,0-2.2,0.3-4.2,1.5l-2.2,1.4V48.9l7.6,3.8l0.1,0.1c0,0,0.1,0.1,0.3,0.1s0.4,0.2,0.6,0.2c0.2-0.1,0.2,0.1,0.5-0.6l0.4-0.9h39.3
		V53v-1.4h1l0.4,0.9l0,0c0,0.1,0.1,0.1,0.1,0.2c0.1,0.1,0.2,0.2,0.4,0.2c0.1,0,0.3,0,0.6-0.2c2.4-1.2,7.1-3.2,7.2-3.2l2-0.9v21.3
		l-2.4,0.6l-0.2,0.2c0,0,0,0,0,0c0,0-0.1-0.1-0.4-0.2c-0.5-0.2-1.6-0.5-3.6-0.5c-1.2,0-2.8,0.1-4.9,0.4c-6.5,1-10.1,3.2-11.5,4.1
		c-0.5,0.3-0.6,0.5-0.6,0.4C56.5,75.1,54.3,77.1,49.9,77.1L49.9,77.1z"/>
	<path clip-path="url(#SVGID_2_)" fill="#FFFFFF" d="M63.9,41.3l-1.5,8.4l3.1,0v1.4l0.1-1.4h0c0.1,0,0.5,0,0.7-0.2
		c0.2-0.1,0.2-0.1,0.3-0.7c0-0.1,0-0.3,0-0.4l-4.1-14.6L63.9,41.3z M65.5,52.6l-2.9-0.2l0.5-10.7l-1.9-14.5l2.3-0.1l5.8,20.6l0,0.1
		c0.1,0.4,0.1,0.7,0.1,1c0,1.5-0.8,2.7-1.7,3.2c-0.9,0.5-1.7,0.5-2.1,0.5C65.6,52.6,65.5,52.6,65.5,52.6"/>
	<path clip-path="url(#SVGID_2_)" fill="#FFFFFF" d="M52.1,49.8c3.9,0,7.2,0,8.4,0c0.5,0,0.9,0,1.1,0c0.2,0,0.2-0.1,0.2-0.1
		c0,0,0,0,0.1-0.1c0.1-0.2,0.1-0.6,0.1-1.2c0-2.8-1.3-22.5-1.7-23.8c-0.3-0.9,0-0.6-0.6-0.9c-0.7-0.2-2.6-0.4-6.1-0.4H35.5v-1.4v1.4
		h-0.1l-0.1,0h0c-0.2,0-1,0.1-1.4,0.3c-0.5,0.3-0.7,0.4-0.7,1.3c0,2.8-1,15.5-1.1,20.5c0,0.7-0.1,1.4-0.1,2.2c0,0.7,0.1,1.4,0.3,1.7
		c0.2,0.3,0.2,0.4,1,0.4c0.1,0,0.2,0,0.4,0C33.7,49.8,44.1,49.8,52.1,49.8 M33.7,52.6c-0.1,0-0.3,0-0.4,0c-1.6,0-2.9-0.8-3.5-1.9
		c-0.6-1.1-0.7-2.2-0.7-3.2c0-1,0.1-1.9,0.1-2.3c0.2-5.2,1.1-18,1.1-20.5c0-1.9,1.2-3.3,2.3-3.9c1.2-0.6,2.2-0.6,2.7-0.6
		c0.1,0,0.1,0,0.2,0h18.1c3.5,0,5.5,0.1,6.9,0.5c1.6,0.4,2.4,1.9,2.6,3c0.5,2.2,1.7,21.2,1.8,24.5c0,1.7-0.4,3-1.5,3.8
		c-0.9,0.5-1.7,0.5-2.3,0.5c-0.2,0-0.3,0-0.5,0c-1.3,0-4.6,0-8.4,0C44.1,52.6,33.7,52.6,33.7,52.6"/>
	<path clip-path="url(#SVGID_2_)" fill="#FFFFFF" d="M38.4,36.3c0,4.5,3.6,8.1,8.1,8.1c4.5,0,8.1-3.6,8.1-8.1c0-4.5-3.6-8.1-8.1-8.1
		C42,28.2,38.4,31.9,38.4,36.3 M36.9,36.3c0-5.3,4.3-9.6,9.6-9.6c5.3,0,9.6,4.3,9.6,9.6c0,5.3-4.3,9.6-9.6,9.6
		C41.2,46,36.9,41.7,36.9,36.3"/>
</g>
<rect x="62.3" y="51.2" fill="#005596" width="3.9" height="1.8"/>
<polygon fill="#FFFFFF" points="60.8,53.3 60.8,52.2 60.8,50.9 60.8,49.8 67.6,49.8 67.6,53.3 "/>
<path fill="#FFFFFF" d="M31.7,56.9H67l0.7-0.7v-2.5H31v2.5L31.7,56.9z M31.1,58.5l-0.2-0.2l-1.2-1.2l0.5-0.5H31h-0.8l-0.5,0.5
	l-0.2-0.2v-4.6h39.8v4.6l-1.6,1.6H31.1z"/>
<path fill="#FFFFFF" d="M33.1,60.7h4.1v-2.3h-4.1V60.7z M31.5,62.3v-4.6v-0.8h7.1v5.3H31.5z"/>
<path fill="#FFFFFF" d="M62,60.7h4.1v-2.3H62V60.7z M60.5,62.3v-4.6v-0.8h7.1v5.3H60.5z"/>
<path fill="#FFFFFF" d="M44.8,20.4h7.4v-1.8h-7.4V20.4z M42,23.3v-6.1v-1.4h13.1v7.6H42z"/>
<rect x="38.3" y="63.4" fill="#FFFFFF" width="2.9" height="5.3"/>
<g>
	<defs>
		<rect id="SVGID_3_" width="100" height="100"/>
	</defs>
	<clipPath id="SVGID_4_">
		<use xlink:href="#SVGID_3_"  overflow="visible"/>
	</clipPath>
	<path clip-path="url(#SVGID_4_)" fill="#FFFFFF" d="M17.7,81.4h2.1V39.9h-2.1V81.4z M16.3,84.3c-0.4,0-0.7-0.1-1-0.4
		c-0.3-0.3-0.4-0.6-0.4-1V38.4c0-0.4,0.2-0.7,0.4-1c0.3-0.3,0.6-0.4,1-0.4h5c0.4,0,0.7,0.1,1,0.4c0.3,0.3,0.4,0.6,0.4,1v44.4
		c0,0.4-0.1,0.7-0.4,1c-0.3,0.3-0.6,0.4-1,0.4H16.3z"/>
</g>
<rect x="14.8" y="49.8" fill="#005596" width="1.5" height="20.6"/>
<g>
	<defs>
		<rect id="SVGID_5_" width="100" height="100"/>
	</defs>
	<clipPath id="SVGID_6_">
		<use xlink:href="#SVGID_5_"  overflow="visible"/>
	</clipPath>
	<path clip-path="url(#SVGID_6_)" fill="#FFFFFF" d="M14.8,71.2c-0.2,0-0.4-0.1-0.5-0.2c-0.1-0.1-0.2-0.3-0.2-0.5V49.8
		c0-0.2,0.1-0.4,0.2-0.5c0.1-0.1,0.3-0.2,0.5-0.2h1.5c0.2,0,0.4,0.1,0.5,0.2c0.1,0.1,0.2,0.3,0.2,0.5v20.6c0,0.2-0.1,0.4-0.2,0.5
		c-0.1,0.1-0.3,0.2-0.5,0.2H14.8z"/>
	<path clip-path="url(#SVGID_6_)" fill="#FFFFFF" d="M80.2,81.4h2.1V39.9l-2.1,0V81.4z M78.7,84.3c-0.4,0-0.7-0.1-1-0.4
		c-0.3-0.3-0.4-0.6-0.4-1V38.4c0-0.4,0.1-0.7,0.4-1c0.3-0.3,0.6-0.4,1-0.4h5v1.4V37c0.4,0,0.7,0.2,1,0.4c0.3,0.3,0.4,0.6,0.4,1v44.4
		c0,0.4-0.1,0.7-0.4,1c-0.3,0.3-0.6,0.4-1,0.4H78.7z"/>
</g>
<rect x="83.7" y="49.8" fill="#005596" width="1.5" height="20.6"/>
<g>
	<defs>
		<rect id="SVGID_7_" width="100" height="100"/>
	</defs>
	<clipPath id="SVGID_8_">
		<use xlink:href="#SVGID_7_"  overflow="visible"/>
	</clipPath>
	<path clip-path="url(#SVGID_8_)" fill="#FFFFFF" d="M83.7,71.2c-0.2,0-0.4-0.1-0.5-0.2C83,70.9,83,70.7,83,70.5V49.8
		c0-0.2,0.1-0.4,0.2-0.5s0.3-0.2,0.5-0.2h1.5c0.2,0,0.4,0.1,0.5,0.2c0.1,0.1,0.2,0.3,0.2,0.5v20.6c0,0.2-0.1,0.4-0.2,0.5
		c-0.1,0.1-0.3,0.2-0.5,0.2H83.7z"/>
</g>
</svg>
