<?xml version="1.0" encoding="utf-8"?>
<!-- Generator: Adobe Illustrator 18.0.0, SVG Export Plug-In . SVG Version: 6.00 Build 0)  -->
<!DOCTYPE svg PUBLIC "-//W3C//DTD SVG 1.1//EN" "http://www.w3.org/Graphics/SVG/1.1/DTD/svg11.dtd">
<svg version="1.1" id="Ebene_1" xmlns="http://www.w3.org/2000/svg" xmlns:xlink="http://www.w3.org/1999/xlink" x="0px" y="0px"
	 width="100px" height="100px" viewBox="0 0 100 100" enable-background="new 0 0 100 100" xml:space="preserve">
<rect x="1.6" y="1.6" fill="#A3A6A8" width="96.9" height="96.9"/>
<path fill="#FFFFFF" d="M3.1,3.1h93.8v93.8H3.1V3.1z M0,0v1.5v96.9v1.6h1.6h96.9h1.6V0H0z"/>
<g>
	<defs>
		<rect id="SVGID_1_" width="100" height="100"/>
	</defs>
	<clipPath id="SVGID_2_">
		<use xlink:href="#SVGID_1_"  overflow="visible"/>
	</clipPath>
	<path clip-path="url(#SVGID_2_)" fill="#FFFFFF" d="M15.3,50c0,19.2,15.5,34.7,34.7,34.7c19.2,0,34.7-15.5,34.7-34.7
		c0-19.2-15.5-34.7-34.7-34.7C30.8,15.3,15.3,30.8,15.3,50 M12.4,50c0-20.8,16.8-37.6,37.6-37.6S87.6,29.2,87.6,50
		c0,20.8-16.8,37.6-37.6,37.6S12.4,70.8,12.4,50"/>
	<path clip-path="url(#SVGID_2_)" fill="#FFFFFF" d="M33,50c0,9.4,7.6,16.9,17,16.9c9.4,0,16.9-7.6,16.9-16.9
		c0-9.4-7.6-16.9-16.9-17C40.6,33.1,33.1,40.6,33,50 M30.1,50c0-11,8.9-19.9,19.9-19.9c11,0,19.9,8.9,19.9,19.9
		c0,11-8.9,19.9-19.9,19.9C39,69.9,30.1,61,30.1,50"/>
	<path clip-path="url(#SVGID_2_)" fill="#FFFFFF" d="M36.7,50c0,7.3,5.9,13.3,13.3,13.3c7.3,0,13.3-5.9,13.3-13.3
		c0-7.3-5.9-13.3-13.3-13.3C42.7,36.7,36.7,42.7,36.7,50 M35.2,50c0-8.2,6.6-14.8,14.8-14.8c8.2,0,14.8,6.6,14.8,14.8
		c0,8.2-6.6,14.8-14.8,14.8C41.8,64.8,35.2,58.2,35.2,50"/>
</g>
<path fill="#FFFFFF" d="M32.2,25.1l-2.1,0.4l-0.7,2l-0.7,2l1.3,1.6l1.3,1.6l2.1-0.4l2.1-0.4l0.7-2l0.7-2l-1.3-1.6l-1.3-1.6
	L32.2,25.1z M28.8,31.9l-1.9-2.3l1-2.8l1-2.8l2.9-0.5l2.9-0.5l1.9,2.3l1.9,2.3l-1,2.8l-0.9,2.4l-0.2,0.4l-2.9,0.5l-2.9,0.5
	L28.8,31.9z"/>
<g>
	<defs>
		<rect id="SVGID_3_" width="100" height="100"/>
	</defs>
	<clipPath id="SVGID_4_">
		<use xlink:href="#SVGID_3_"  overflow="visible"/>
	</clipPath>
	<path clip-path="url(#SVGID_4_)" fill="#FFFFFF" d="M30.3,28.6c0,1.4,1.1,2.5,2.5,2.5c1.4,0,2.5-1.1,2.5-2.5c0-1.4-1.1-2.5-2.5-2.5
		C31.4,26.1,30.3,27.2,30.3,28.6 M29.5,28.6c0-1.8,1.5-3.3,3.3-3.3c1.8,0,3.3,1.5,3.3,3.3c0,1.8-1.5,3.3-3.3,3.3
		C31,31.9,29.5,30.4,29.5,28.6"/>
</g>
<path fill="#FFFFFF" d="M52.4,20l-1.8,1l0,2.1v2.1l1.8,1l1.8,1l1.8-1l1.8-1v-2.1V21L56,20l-1.8-1L52.4,20z M51.6,27.6L49,26.1v-3v-3
	l2.6-1.5l2.6-1.5l2.6,1.5l2.6,1.5v3v2.5v0.4l-2.6,1.5l-2.6,1.5L51.6,27.6z"/>
<g>
	<defs>
		<rect id="SVGID_5_" width="100" height="100"/>
	</defs>
	<clipPath id="SVGID_6_">
		<use xlink:href="#SVGID_5_"  overflow="visible"/>
	</clipPath>
	<path clip-path="url(#SVGID_6_)" fill="#FFFFFF" d="M51.1,24.2l0.4-0.1l0.4-0.1c0.4,1,1.3,1.7,2.4,1.7c0.3,0,0.6,0,0.9-0.1
		c1-0.4,1.7-1.3,1.7-2.4c0-0.3,0-0.6-0.2-0.9c-0.4-1-1.3-1.7-2.4-1.7c-0.3,0-0.6,0.1-0.9,0.2c-1,0.4-1.7,1.3-1.7,2.4
		c0,0.3,0.1,0.6,0.2,0.9l-0.4,0.1L51.1,24.2c-0.1-0.4-0.2-0.8-0.2-1.1c0-1.4,0.8-2.6,2.2-3.1c0.4-0.1,0.8-0.2,1.1-0.2
		c1.3,0,2.6,0.8,3.1,2.2c0.1,0.4,0.2,0.8,0.2,1.1c0,1.4-0.8,2.6-2.2,3.1c-0.4,0.1-0.8,0.2-1.1,0.2C52.8,26.4,51.6,25.6,51.1,24.2"/>
</g>
<path fill="#FFFFFF" d="M69.8,32l-1.4,1.6l0.7,2l0.7,2l2.1,0.4l2,0.4l1.4-1.6l1.4-1.6l-0.7-2l-0.7-2l-2-0.4l-2-0.4L69.8,32z
	 M71.6,39.4l-2.9-0.6l-1-2.8l-1-2.8l2-2.3l2-2.3l2.9,0.6l2.9,0.6l1,2.8l0.8,2.4l-0.7,0.3l0.7-0.3l0.1,0.4l-2,2.3l-2,2.3L71.6,39.4z"
	/>
<g>
	<defs>
		<rect id="SVGID_7_" width="100" height="100"/>
	</defs>
	<clipPath id="SVGID_8_">
		<use xlink:href="#SVGID_7_"  overflow="visible"/>
	</clipPath>
	<path clip-path="url(#SVGID_8_)" fill="#FFFFFF" d="M70,36.4l0.3-0.3l0.3-0.2c0.5,0.6,1.2,0.9,2,0.9c0.6,0,1.1-0.2,1.6-0.6
		c0.6-0.5,0.9-1.2,0.9-2c0-0.6-0.2-1.1-0.6-1.6c-0.5-0.6-1.2-0.9-2-0.9c-0.6,0-1.1,0.2-1.6,0.6c-0.6,0.5-0.9,1.2-0.9,2
		c0,0.6,0.2,1.1,0.6,1.6l-0.3,0.2L70,36.4c-0.5-0.6-0.7-1.4-0.7-2.1c0-1,0.4-1.9,1.2-2.6c0.6-0.5,1.4-0.7,2.1-0.7
		c1,0,1.9,0.4,2.6,1.2c0.5,0.6,0.7,1.4,0.7,2.1c0,1-0.4,1.9-1.2,2.6c-0.6,0.5-1.4,0.7-2.1,0.7C71.6,37.7,70.6,37.2,70,36.4"/>
</g>
<path fill="#FFFFFF" d="M74.8,50.1l-1.5,1.4l0.5,2l0.5,2l2,0.6l2,0.6l1.5-1.4l1.5-1.4l-0.5-2l-0.5-2l-2-0.6l-2-0.6L74.8,50.1z
	 M78.4,57.7l0.2-0.7 M75.7,57.7l-2.9-0.9l-0.7-2.9L71.5,51l2.2-2l2.2-2l2.9,0.9l2.9,0.9l0.7,2.9l0.7,2.9l-2.2,2l-1.9,1.7l-0.3,0.3
	L75.7,57.7z"/>
<g>
	<defs>
		<rect id="SVGID_9_" width="100" height="100"/>
	</defs>
	<clipPath id="SVGID_10_">
		<use xlink:href="#SVGID_9_"  overflow="visible"/>
	</clipPath>
	<path clip-path="url(#SVGID_10_)" fill="#FFFFFF" d="M75,51.6c-0.2,0.4-0.3,0.7-0.3,1.1c0,0.9,0.5,1.8,1.4,2.2
		c0.4,0.2,0.8,0.3,1.1,0.3c0.9,0,1.8-0.5,2.2-1.4c0.2-0.4,0.3-0.8,0.3-1.1c0-0.9-0.5-1.8-1.4-2.2c-0.4-0.2-0.8-0.3-1.1-0.3
		C76.3,50.2,75.4,50.7,75,51.6l-0.3-0.2L75,51.6z M75.7,55.7c-1.2-0.6-1.8-1.8-1.8-3c0-0.5,0.1-1,0.4-1.5h0c0.6-1.1,1.7-1.8,2.9-1.8
		c0.5,0,1,0.1,1.5,0.4c1.1,0.6,1.8,1.7,1.8,2.9c0,0.5-0.1,1-0.4,1.5c-0.6,1.1-1.7,1.8-3,1.8C76.7,56,76.2,55.9,75.7,55.7"/>
</g>
<path fill="#FFFFFF" d="M67.2,68.2l-2,0.5l-0.6,2l-0.6,2l1.4,1.5l1.4,1.5l2-0.5l2-0.5l0.6-2l0.6-2l-1.4-1.5l-1.4-1.5L67.2,68.2z
	 M64.2,75.2l-2-2.2l0.9-2.9l0.9-2.9l2.9-0.7l2.9-0.7l2,2.2l2,2.2L73,73.2l-0.7,2.4l-0.1,0.4l-2.9,0.7l-2.9,0.7L64.2,75.2z"/>
<g>
	<defs>
		<rect id="SVGID_11_" width="100" height="100"/>
	</defs>
	<clipPath id="SVGID_12_">
		<use xlink:href="#SVGID_11_"  overflow="visible"/>
	</clipPath>
	<path clip-path="url(#SVGID_12_)" fill="#FFFFFF" d="M68,74.2h0.1c1.3-0.1,2.4-1.2,2.4-2.5c0,0,0-0.1,0-0.1
		c-0.1-1.3-1.2-2.4-2.5-2.4c0,0-0.1,0-0.1,0c-1.3,0.1-2.4,1.2-2.4,2.5c0,0,0,0.1,0,0.1l-0.4,0l0.4,0C65.6,73.2,66.7,74.2,68,74.2
		 M64.7,71.9c0-0.1,0-0.1,0-0.2c0-1.8,1.4-3.2,3.1-3.3c0.1,0,0.1,0,0.2,0c1.7,0,3.2,1.4,3.3,3.1c0,0.1,0,0.1,0,0.2
		c0,1.7-1.4,3.2-3.1,3.3c-0.1,0-0.1,0-0.2,0C66.3,75,64.8,73.6,64.7,71.9"/>
</g>
<path fill="#FFFFFF" d="M43.8,76l-1.4,1.5l0.6,2l0.6,2l2,0.5l2,0.5L49,81l1.4-1.5l-0.6-2l-0.6-2l-2-0.5l-2-0.5L43.8,76z M47.8,83.3
	l0.2-0.8 M45.1,83.5l-2.9-0.7l-0.8-2.9L40.6,77l2.1-2.1l2.1-2.1l2.9,0.7l2.9,0.7l0.8,2.9l0.8,2.9l-2.1,2.2l-1.8,1.8L48,84.2
	L45.1,83.5z"/>
<g>
	<defs>
		<rect id="SVGID_13_" width="100" height="100"/>
	</defs>
	<clipPath id="SVGID_14_">
		<use xlink:href="#SVGID_13_"  overflow="visible"/>
	</clipPath>
	<path clip-path="url(#SVGID_14_)" fill="#FFFFFF" d="M44.1,77.4c-0.1,0.3-0.2,0.7-0.2,1c0,1,0.6,1.9,1.5,2.3c0.3,0.1,0.7,0.2,1,0.2
		c1,0,1.9-0.6,2.3-1.5c0.1-0.3,0.2-0.7,0.2-1c0-1-0.6-1.9-1.5-2.3c-0.3-0.2-0.7-0.2-1-0.2C45.4,75.9,44.5,76.5,44.1,77.4l-0.4-0.2
		L44.1,77.4z M45,81.5c-1.2-0.6-2-1.8-2-3c0-0.4,0.1-0.9,0.3-1.3c0.5-1.2,1.8-2,3-2c0.5,0,0.9,0.1,1.3,0.3c1.2,0.5,2,1.8,2,3
		c0,0.5-0.1,0.9-0.3,1.3c-0.6,1.2-1.8,2-3,2C45.9,81.8,45.4,81.7,45,81.5"/>
</g>
<path fill="#FFFFFF" d="M25,65.3l-1.1,1.8l1,1.8l1,1.8l2.1,0l2.1,0l1.1-1.8l1.1-1.8l-1-1.8l-1-1.8l-2.1,0l-2.1,0L25,65.3z
	 M30.5,71.6l0-0.8 M28,72.4l-3-0.1l-1.4-2.6l-1.5-2.6l1.5-2.6l1.5-2.6l3,0.1l3,0.1l1.4,2.6l1.5,2.6l-1.5,2.6L31.2,72L31,72.4
	L28,72.4z"/>
<g>
	<defs>
		<rect id="SVGID_15_" width="100" height="100"/>
	</defs>
	<clipPath id="SVGID_16_">
		<use xlink:href="#SVGID_15_"  overflow="visible"/>
	</clipPath>
	<path clip-path="url(#SVGID_16_)" fill="#FFFFFF" d="M25.6,66.7c0,0.1,0,0.3,0,0.5c0,1.2,0.8,2.2,2,2.5c0.2,0,0.3,0,0.5,0
		c1.2,0,2.2-0.8,2.5-2c0-0.2,0-0.3,0-0.5c0-1.2-0.8-2.2-2.1-2.5c-0.1,0-0.3,0-0.5,0C26.9,64.7,25.8,65.5,25.6,66.7l-0.4-0.1
		L25.6,66.7z M27.4,70.4c-1.6-0.3-2.7-1.7-2.7-3.3c0-0.2,0-0.4,0.1-0.6c0.3-1.6,1.7-2.7,3.2-2.7c0.2,0,0.4,0,0.6,0.1
		c1.6,0.3,2.7,1.7,2.7,3.2c0,0.2,0,0.4-0.1,0.6c-0.3,1.6-1.7,2.7-3.2,2.7C27.9,70.5,27.6,70.5,27.4,70.4"/>
</g>
<path fill="#FFFFFF" d="M21.1,44.2l-1.9,0.8L18.9,47l-0.3,2.1l1.6,1.3l1.6,1.3l1.9-0.8l1.9-0.8L26,48l0.3-2.1l-1.6-1.3L23,43.4
	L21.1,44.2z M19.3,51.6l-2.4-1.8l0.4-3l0.4-3l2.8-1.1l2.8-1.1l2.4,1.8l2.4,1.8l-0.4,3l-0.4,2.5l-0.1,0.4l-2.8,1.1l-2.8,1.1
	L19.3,51.6z"/>
<g>
	<defs>
		<rect id="SVGID_17_" width="100" height="100"/>
	</defs>
	<clipPath id="SVGID_18_">
		<use xlink:href="#SVGID_17_"  overflow="visible"/>
	</clipPath>
	<path clip-path="url(#SVGID_18_)" fill="#FFFFFF" d="M22.4,50c0.2,0,0.3,0,0.5-0.1c1.2-0.3,2-1.3,2-2.5c0-0.2,0-0.3-0.1-0.5
		c-0.3-1.2-1.3-2-2.5-2c-0.2,0-0.4,0-0.5,0.1c-1.2,0.2-2,1.3-2,2.5c0,0.2,0,0.3,0.1,0.5l-0.4,0.1L20,48C20.2,49.2,21.3,50,22.4,50
		 M19.2,48.2L19.2,48.2c0-0.2-0.1-0.5-0.1-0.7c0-1.5,1.1-2.9,2.6-3.2c0.2-0.1,0.5-0.1,0.7-0.1c1.5,0,2.9,1.1,3.2,2.6
		c0,0.2,0.1,0.5,0.1,0.7c0,1.5-1.1,2.9-2.6,3.2c-0.2,0.1-0.5,0.1-0.7,0.1C20.9,50.8,19.5,49.8,19.2,48.2"/>
</g>
</svg>
