<?xml version="1.0" encoding="utf-8"?>
<!-- Generator: Adobe Illustrator 16.0.0, SVG Export Plug-In . SVG Version: 6.00 Build 0)  -->
<!DOCTYPE svg PUBLIC "-//W3C//DTD SVG 1.1//EN" "http://www.w3.org/Graphics/SVG/1.1/DTD/svg11.dtd">
<svg version="1.1" id="Layer_1" xmlns="http://www.w3.org/2000/svg" xmlns:xlink="http://www.w3.org/1999/xlink" x="0px" y="0px"
	 width="1440px" height="1080px" viewBox="0 0 1440 1080" enable-background="new 0 0 1440 1080" xml:space="preserve">
<g>
	<defs>
		<rect id="SVGID_1_" width="1440" height="1080"/>
	</defs>
	<clipPath id="SVGID_2_">
		<use xlink:href="#SVGID_1_"  overflow="visible"/>
	</clipPath>
	<path clip-path="url(#SVGID_2_)" fill="#1F78A8" d="M273.558,443.642l-183.083,0.312c0,0-1.358-50.892,55.271-65.904
		c15.206-4.031,46.756-3.29,62.913-2.581c6.379,0.28,12.421,2.923,16.957,7.419l51.803,51.351
		C280.902,437.691,278.462,443.634,273.558,443.642"/>
</g>
<text transform="matrix(1 0 0 1 616.7134 763.3848)" fill="#0F3057" font-family="'SpectralSC-SemiBold'" font-size="600">RE</text>
<g>
	<defs>
		<rect id="SVGID_3_" width="1440" height="1080"/>
	</defs>
	<clipPath id="SVGID_4_">
		<use xlink:href="#SVGID_3_"  overflow="visible"/>
	</clipPath>
	<rect x="563.191" y="291.888" clip-path="url(#SVGID_4_)" width="16" height="490"/>
	<path clip-path="url(#SVGID_4_)" fill="#1F78A8" d="M349.462,483.015l-129.056-131.18c0,0,32.85-33.039,78.04-13.862
		c15.225,6.462,42.266,36.386,54.473,50.503c4.058,4.693,6.275,10.691,6.251,16.895l-0.291,73.81
		C358.86,484.09,352.905,486.515,349.462,483.015"/>
	<path clip-path="url(#SVGID_4_)" fill="#1F78A8" d="M377.303,560.436l0.514-183.917c0,0,46.186-0.632,63.799,45.191
		c5.852,15.226,5.502,53.72,4.952,72.2c-0.194,6.496-2.833,12.675-7.401,17.299l-52.454,53.106
		C383.254,567.816,377.289,565.357,377.303,560.436"/>
	<path clip-path="url(#SVGID_4_)" fill="#1F78A8" d="M261.126,660.474l183.148-1.417c0,0,1.186,55.569-58.103,67.217
		c-15.326,3.01-45.545,2.15-61.234,1.435c-6.375-0.29-12.405-2.941-16.932-7.439l-50.712-50.397
		C253.827,666.428,256.24,660.512,261.126,660.474"/>
	<path clip-path="url(#SVGID_4_)" fill="#1F78A8" d="M184.792,621.23l128.845,132.385c0,0-38.354,36.837-88.103,5.316
		c-13.111-8.307-33.346-29.646-43.778-41.09c-4.333-4.755-6.716-10.958-6.691-17.391l0.289-75.406
		C175.373,620.12,181.358,617.702,184.792,621.23"/>
	<path clip-path="url(#SVGID_4_)" fill="#1F78A8" d="M155.151,547.369l0.887,183.081c0,0-50.887,1.519-66.077-55.063
		c-4.079-15.193-3.437-46.746-2.779-62.903c0.261-6.381,2.885-12.431,7.366-16.98l51.188-51.966
		C149.178,540.042,155.127,542.463,155.151,547.369"/>
	<path clip-path="url(#SVGID_4_)" fill="#1F78A8" d="M194.667,473.826L62.087,600.088c0,0-36.02-35.978-5.279-85.851
		c8.255-13.391,31.649-34.574,43.856-45.182c4.82-4.188,11.022-6.43,17.406-6.292l72.925,1.585
		C195.899,464.454,198.219,470.443,194.667,473.826"/>
	<path clip-path="url(#SVGID_4_)" fill="#1F78A8" d="M339.748,631.845l132.627-126.968c0,0,30.792,37.421,7.976,80.888
		c-7.495,14.277-33.14,38.133-46.027,49.623c-4.755,4.239-10.913,6.553-17.284,6.503l-73.533-0.577
		C338.572,641.275,336.183,635.257,339.748,631.845"/>
</g>
</svg>
